%TF.GenerationSoftware,KiCad,Pcbnew,6.0.7-5.fc37*%
%TF.CreationDate,2022-11-14T12:33:56+01:00*%
%TF.ProjectId,GameboyTestCartridge,47616d65-626f-4795-9465-737443617274,rev?*%
%TF.SameCoordinates,PX9b72ec0PY876bf80*%
%TF.FileFunction,Legend,Top*%
%TF.FilePolarity,Positive*%
%FSLAX46Y46*%
G04 Gerber Fmt 4.6, Leading zero omitted, Abs format (unit mm)*
G04 Created by KiCad (PCBNEW 6.0.7-5.fc37) date 2022-11-14 12:33:56*
%MOMM*%
%LPD*%
G01*
G04 APERTURE LIST*
%ADD10C,0.150000*%
%ADD11C,0.120000*%
%ADD12C,0.010000*%
G04 APERTURE END LIST*
D10*
X26400000Y57000000D02*
X25800000Y56300000D01*
X27000000Y56300000D02*
X26400000Y57000000D01*
X26400000Y57000000D02*
X26400000Y54900000D01*
X25800000Y56300000D02*
X27000000Y56300000D01*
X20564285Y42050000D02*
X20469047Y42097620D01*
X20326190Y42097620D01*
X20183333Y42050000D01*
X20088095Y41954762D01*
X20040476Y41859524D01*
X19992857Y41669048D01*
X19992857Y41526191D01*
X20040476Y41335715D01*
X20088095Y41240477D01*
X20183333Y41145239D01*
X20326190Y41097620D01*
X20421428Y41097620D01*
X20564285Y41145239D01*
X20611904Y41192858D01*
X20611904Y41526191D01*
X20421428Y41526191D01*
X21373809Y41621429D02*
X21516666Y41573810D01*
X21564285Y41526191D01*
X21611904Y41430953D01*
X21611904Y41288096D01*
X21564285Y41192858D01*
X21516666Y41145239D01*
X21421428Y41097620D01*
X21040476Y41097620D01*
X21040476Y42097620D01*
X21373809Y42097620D01*
X21469047Y42050000D01*
X21516666Y42002381D01*
X21564285Y41907143D01*
X21564285Y41811905D01*
X21516666Y41716667D01*
X21469047Y41669048D01*
X21373809Y41621429D01*
X21040476Y41621429D01*
X21897619Y42097620D02*
X22469047Y42097620D01*
X22183333Y41097620D02*
X22183333Y42097620D01*
X23373809Y41192858D02*
X23326190Y41145239D01*
X23183333Y41097620D01*
X23088095Y41097620D01*
X22945238Y41145239D01*
X22850000Y41240477D01*
X22802380Y41335715D01*
X22754761Y41526191D01*
X22754761Y41669048D01*
X22802380Y41859524D01*
X22850000Y41954762D01*
X22945238Y42050000D01*
X23088095Y42097620D01*
X23183333Y42097620D01*
X23326190Y42050000D01*
X23373809Y42002381D01*
X25135714Y41097620D02*
X24802380Y41573810D01*
X24564285Y41097620D02*
X24564285Y42097620D01*
X24945238Y42097620D01*
X25040476Y42050000D01*
X25088095Y42002381D01*
X25135714Y41907143D01*
X25135714Y41764286D01*
X25088095Y41669048D01*
X25040476Y41621429D01*
X24945238Y41573810D01*
X24564285Y41573810D01*
X25945238Y41145239D02*
X25850000Y41097620D01*
X25659523Y41097620D01*
X25564285Y41145239D01*
X25516666Y41240477D01*
X25516666Y41621429D01*
X25564285Y41716667D01*
X25659523Y41764286D01*
X25850000Y41764286D01*
X25945238Y41716667D01*
X25992857Y41621429D01*
X25992857Y41526191D01*
X25516666Y41430953D01*
X26326190Y41764286D02*
X26564285Y41097620D01*
X26802380Y41764286D01*
X27707142Y41097620D02*
X27135714Y41097620D01*
X27421428Y41097620D02*
X27421428Y42097620D01*
X27326190Y41954762D01*
X27230952Y41859524D01*
X27135714Y41811905D01*
%TO.C,U1*%
X352380Y15638096D02*
X1161904Y15638096D01*
X1257142Y15685715D01*
X1304761Y15733334D01*
X1352380Y15828572D01*
X1352380Y16019048D01*
X1304761Y16114286D01*
X1257142Y16161905D01*
X1161904Y16209524D01*
X352380Y16209524D01*
X1352380Y17209524D02*
X1352380Y16638096D01*
X1352380Y16923810D02*
X352380Y16923810D01*
X495238Y16828572D01*
X590476Y16733334D01*
X638095Y16638096D01*
%TO.C,U8*%
X37702096Y35320408D02*
X38274516Y34747988D01*
X38375531Y34714316D01*
X38442875Y34714316D01*
X38543890Y34747988D01*
X38678577Y34882675D01*
X38712249Y34983690D01*
X38712249Y35051034D01*
X38678577Y35152049D01*
X38106157Y35724469D01*
X38846936Y35859156D02*
X38745921Y35825484D01*
X38678577Y35825484D01*
X38577562Y35859156D01*
X38543890Y35892827D01*
X38510218Y35993843D01*
X38510218Y36061186D01*
X38543890Y36162201D01*
X38678577Y36296888D01*
X38779592Y36330560D01*
X38846936Y36330560D01*
X38947951Y36296888D01*
X38981623Y36263217D01*
X39015295Y36162201D01*
X39015295Y36094858D01*
X38981623Y35993843D01*
X38846936Y35859156D01*
X38813264Y35758140D01*
X38813264Y35690797D01*
X38846936Y35589782D01*
X38981623Y35455095D01*
X39082638Y35421423D01*
X39149982Y35421423D01*
X39250997Y35455095D01*
X39385684Y35589782D01*
X39419356Y35690797D01*
X39419356Y35758140D01*
X39385684Y35859156D01*
X39250997Y35993843D01*
X39149982Y36027514D01*
X39082638Y36027514D01*
X38981623Y35993843D01*
%TO.C,R28*%
X44257142Y53847620D02*
X43923809Y54323810D01*
X43685714Y53847620D02*
X43685714Y54847620D01*
X44066666Y54847620D01*
X44161904Y54800000D01*
X44209523Y54752381D01*
X44257142Y54657143D01*
X44257142Y54514286D01*
X44209523Y54419048D01*
X44161904Y54371429D01*
X44066666Y54323810D01*
X43685714Y54323810D01*
X44638095Y54752381D02*
X44685714Y54800000D01*
X44780952Y54847620D01*
X45019047Y54847620D01*
X45114285Y54800000D01*
X45161904Y54752381D01*
X45209523Y54657143D01*
X45209523Y54561905D01*
X45161904Y54419048D01*
X44590476Y53847620D01*
X45209523Y53847620D01*
X45780952Y54419048D02*
X45685714Y54466667D01*
X45638095Y54514286D01*
X45590476Y54609524D01*
X45590476Y54657143D01*
X45638095Y54752381D01*
X45685714Y54800000D01*
X45780952Y54847620D01*
X45971428Y54847620D01*
X46066666Y54800000D01*
X46114285Y54752381D01*
X46161904Y54657143D01*
X46161904Y54609524D01*
X46114285Y54514286D01*
X46066666Y54466667D01*
X45971428Y54419048D01*
X45780952Y54419048D01*
X45685714Y54371429D01*
X45638095Y54323810D01*
X45590476Y54228572D01*
X45590476Y54038096D01*
X45638095Y53942858D01*
X45685714Y53895239D01*
X45780952Y53847620D01*
X45971428Y53847620D01*
X46066666Y53895239D01*
X46114285Y53942858D01*
X46161904Y54038096D01*
X46161904Y54228572D01*
X46114285Y54323810D01*
X46066666Y54371429D01*
X45971428Y54419048D01*
%TO.C,R11*%
X37352380Y38857143D02*
X36876190Y38523810D01*
X37352380Y38285715D02*
X36352380Y38285715D01*
X36352380Y38666667D01*
X36400000Y38761905D01*
X36447619Y38809524D01*
X36542857Y38857143D01*
X36685714Y38857143D01*
X36780952Y38809524D01*
X36828571Y38761905D01*
X36876190Y38666667D01*
X36876190Y38285715D01*
X37352380Y39809524D02*
X37352380Y39238096D01*
X37352380Y39523810D02*
X36352380Y39523810D01*
X36495238Y39428572D01*
X36590476Y39333334D01*
X36638095Y39238096D01*
X37352380Y40761905D02*
X37352380Y40190477D01*
X37352380Y40476191D02*
X36352380Y40476191D01*
X36495238Y40380953D01*
X36590476Y40285715D01*
X36638095Y40190477D01*
%TO.C,R17*%
X29852380Y38857143D02*
X29376190Y38523810D01*
X29852380Y38285715D02*
X28852380Y38285715D01*
X28852380Y38666667D01*
X28900000Y38761905D01*
X28947619Y38809524D01*
X29042857Y38857143D01*
X29185714Y38857143D01*
X29280952Y38809524D01*
X29328571Y38761905D01*
X29376190Y38666667D01*
X29376190Y38285715D01*
X29852380Y39809524D02*
X29852380Y39238096D01*
X29852380Y39523810D02*
X28852380Y39523810D01*
X28995238Y39428572D01*
X29090476Y39333334D01*
X29138095Y39238096D01*
X28852380Y40142858D02*
X28852380Y40809524D01*
X29852380Y40380953D01*
%TO.C,R26*%
X44257142Y56847620D02*
X43923809Y57323810D01*
X43685714Y56847620D02*
X43685714Y57847620D01*
X44066666Y57847620D01*
X44161904Y57800000D01*
X44209523Y57752381D01*
X44257142Y57657143D01*
X44257142Y57514286D01*
X44209523Y57419048D01*
X44161904Y57371429D01*
X44066666Y57323810D01*
X43685714Y57323810D01*
X44638095Y57752381D02*
X44685714Y57800000D01*
X44780952Y57847620D01*
X45019047Y57847620D01*
X45114285Y57800000D01*
X45161904Y57752381D01*
X45209523Y57657143D01*
X45209523Y57561905D01*
X45161904Y57419048D01*
X44590476Y56847620D01*
X45209523Y56847620D01*
X46066666Y57847620D02*
X45876190Y57847620D01*
X45780952Y57800000D01*
X45733333Y57752381D01*
X45638095Y57609524D01*
X45590476Y57419048D01*
X45590476Y57038096D01*
X45638095Y56942858D01*
X45685714Y56895239D01*
X45780952Y56847620D01*
X45971428Y56847620D01*
X46066666Y56895239D01*
X46114285Y56942858D01*
X46161904Y57038096D01*
X46161904Y57276191D01*
X46114285Y57371429D01*
X46066666Y57419048D01*
X45971428Y57466667D01*
X45780952Y57466667D01*
X45685714Y57419048D01*
X45638095Y57371429D01*
X45590476Y57276191D01*
%TO.C,R3*%
X19333333Y54947620D02*
X19000000Y55423810D01*
X18761904Y54947620D02*
X18761904Y55947620D01*
X19142857Y55947620D01*
X19238095Y55900000D01*
X19285714Y55852381D01*
X19333333Y55757143D01*
X19333333Y55614286D01*
X19285714Y55519048D01*
X19238095Y55471429D01*
X19142857Y55423810D01*
X18761904Y55423810D01*
X19666666Y55947620D02*
X20285714Y55947620D01*
X19952380Y55566667D01*
X20095238Y55566667D01*
X20190476Y55519048D01*
X20238095Y55471429D01*
X20285714Y55376191D01*
X20285714Y55138096D01*
X20238095Y55042858D01*
X20190476Y54995239D01*
X20095238Y54947620D01*
X19809523Y54947620D01*
X19714285Y54995239D01*
X19666666Y55042858D01*
%TO.C,R14*%
X34352380Y38857143D02*
X33876190Y38523810D01*
X34352380Y38285715D02*
X33352380Y38285715D01*
X33352380Y38666667D01*
X33400000Y38761905D01*
X33447619Y38809524D01*
X33542857Y38857143D01*
X33685714Y38857143D01*
X33780952Y38809524D01*
X33828571Y38761905D01*
X33876190Y38666667D01*
X33876190Y38285715D01*
X34352380Y39809524D02*
X34352380Y39238096D01*
X34352380Y39523810D02*
X33352380Y39523810D01*
X33495238Y39428572D01*
X33590476Y39333334D01*
X33638095Y39238096D01*
X33685714Y40666667D02*
X34352380Y40666667D01*
X33304761Y40428572D02*
X34019047Y40190477D01*
X34019047Y40809524D01*
%TO.C,C6*%
X35129610Y31365313D02*
X35062267Y31365313D01*
X34927580Y31432657D01*
X34860236Y31500000D01*
X34792893Y31634688D01*
X34792893Y31769375D01*
X34826564Y31870390D01*
X34927580Y32038749D01*
X35028595Y32139764D01*
X35196954Y32240779D01*
X35297969Y32274451D01*
X35432656Y32274451D01*
X35567343Y32207107D01*
X35634687Y32139764D01*
X35702030Y32005077D01*
X35702030Y31937733D01*
X36375465Y31398985D02*
X36240778Y31533672D01*
X36139763Y31567344D01*
X36072419Y31567344D01*
X35904061Y31533672D01*
X35735702Y31432657D01*
X35466328Y31163283D01*
X35432656Y31062268D01*
X35432656Y30994924D01*
X35466328Y30893909D01*
X35601015Y30759222D01*
X35702030Y30725550D01*
X35769374Y30725550D01*
X35870389Y30759222D01*
X36038748Y30927581D01*
X36072419Y31028596D01*
X36072419Y31095939D01*
X36038748Y31196955D01*
X35904061Y31331642D01*
X35803045Y31365313D01*
X35735702Y31365313D01*
X35634687Y31331642D01*
%TO.C,R15*%
X47352380Y37382143D02*
X46876190Y37048810D01*
X47352380Y36810715D02*
X46352380Y36810715D01*
X46352380Y37191667D01*
X46400000Y37286905D01*
X46447619Y37334524D01*
X46542857Y37382143D01*
X46685714Y37382143D01*
X46780952Y37334524D01*
X46828571Y37286905D01*
X46876190Y37191667D01*
X46876190Y36810715D01*
X47352380Y38334524D02*
X47352380Y37763096D01*
X47352380Y38048810D02*
X46352380Y38048810D01*
X46495238Y37953572D01*
X46590476Y37858334D01*
X46638095Y37763096D01*
X46352380Y39239286D02*
X46352380Y38763096D01*
X46828571Y38715477D01*
X46780952Y38763096D01*
X46733333Y38858334D01*
X46733333Y39096429D01*
X46780952Y39191667D01*
X46828571Y39239286D01*
X46923809Y39286905D01*
X47161904Y39286905D01*
X47257142Y39239286D01*
X47304761Y39191667D01*
X47352380Y39096429D01*
X47352380Y38858334D01*
X47304761Y38763096D01*
X47257142Y38715477D01*
%TO.C,R1*%
X1452380Y43933334D02*
X976190Y43600000D01*
X1452380Y43361905D02*
X452380Y43361905D01*
X452380Y43742858D01*
X500000Y43838096D01*
X547619Y43885715D01*
X642857Y43933334D01*
X785714Y43933334D01*
X880952Y43885715D01*
X928571Y43838096D01*
X976190Y43742858D01*
X976190Y43361905D01*
X1452380Y44885715D02*
X1452380Y44314286D01*
X1452380Y44600000D02*
X452380Y44600000D01*
X595238Y44504762D01*
X690476Y44409524D01*
X738095Y44314286D01*
%TO.C,C4*%
X1257142Y32333334D02*
X1304761Y32285715D01*
X1352380Y32142858D01*
X1352380Y32047620D01*
X1304761Y31904762D01*
X1209523Y31809524D01*
X1114285Y31761905D01*
X923809Y31714286D01*
X780952Y31714286D01*
X590476Y31761905D01*
X495238Y31809524D01*
X400000Y31904762D01*
X352380Y32047620D01*
X352380Y32142858D01*
X400000Y32285715D01*
X447619Y32333334D01*
X685714Y33190477D02*
X1352380Y33190477D01*
X304761Y32952381D02*
X1019047Y32714286D01*
X1019047Y33333334D01*
%TO.C,C2*%
X9833333Y51742858D02*
X9785714Y51695239D01*
X9642857Y51647620D01*
X9547619Y51647620D01*
X9404761Y51695239D01*
X9309523Y51790477D01*
X9261904Y51885715D01*
X9214285Y52076191D01*
X9214285Y52219048D01*
X9261904Y52409524D01*
X9309523Y52504762D01*
X9404761Y52600000D01*
X9547619Y52647620D01*
X9642857Y52647620D01*
X9785714Y52600000D01*
X9833333Y52552381D01*
X10214285Y52552381D02*
X10261904Y52600000D01*
X10357142Y52647620D01*
X10595238Y52647620D01*
X10690476Y52600000D01*
X10738095Y52552381D01*
X10785714Y52457143D01*
X10785714Y52361905D01*
X10738095Y52219048D01*
X10166666Y51647620D01*
X10785714Y51647620D01*
%TO.C,D3*%
X20854943Y56547620D02*
X20854943Y57547620D01*
X21093039Y57547620D01*
X21235896Y57500000D01*
X21331134Y57404762D01*
X21378753Y57309524D01*
X21426372Y57119048D01*
X21426372Y56976191D01*
X21378753Y56785715D01*
X21331134Y56690477D01*
X21235896Y56595239D01*
X21093039Y56547620D01*
X20854943Y56547620D01*
X21759705Y57547620D02*
X22378753Y57547620D01*
X22045419Y57166667D01*
X22188277Y57166667D01*
X22283515Y57119048D01*
X22331134Y57071429D01*
X22378753Y56976191D01*
X22378753Y56738096D01*
X22331134Y56642858D01*
X22283515Y56595239D01*
X22188277Y56547620D01*
X21902562Y56547620D01*
X21807324Y56595239D01*
X21759705Y56642858D01*
%TO.C,R23*%
X46057142Y41833371D02*
X45723809Y42309561D01*
X45485714Y41833371D02*
X45485714Y42833371D01*
X45866666Y42833371D01*
X45961904Y42785751D01*
X46009523Y42738132D01*
X46057142Y42642894D01*
X46057142Y42500037D01*
X46009523Y42404799D01*
X45961904Y42357180D01*
X45866666Y42309561D01*
X45485714Y42309561D01*
X46438095Y42738132D02*
X46485714Y42785751D01*
X46580952Y42833371D01*
X46819047Y42833371D01*
X46914285Y42785751D01*
X46961904Y42738132D01*
X47009523Y42642894D01*
X47009523Y42547656D01*
X46961904Y42404799D01*
X46390476Y41833371D01*
X47009523Y41833371D01*
X47342857Y42833371D02*
X47961904Y42833371D01*
X47628571Y42452418D01*
X47771428Y42452418D01*
X47866666Y42404799D01*
X47914285Y42357180D01*
X47961904Y42261942D01*
X47961904Y42023847D01*
X47914285Y41928609D01*
X47866666Y41880990D01*
X47771428Y41833371D01*
X47485714Y41833371D01*
X47390476Y41880990D01*
X47342857Y41928609D01*
%TO.C,R9*%
X36933333Y51847620D02*
X36600000Y52323810D01*
X36361904Y51847620D02*
X36361904Y52847620D01*
X36742857Y52847620D01*
X36838095Y52800000D01*
X36885714Y52752381D01*
X36933333Y52657143D01*
X36933333Y52514286D01*
X36885714Y52419048D01*
X36838095Y52371429D01*
X36742857Y52323810D01*
X36361904Y52323810D01*
X37409523Y51847620D02*
X37600000Y51847620D01*
X37695238Y51895239D01*
X37742857Y51942858D01*
X37838095Y52085715D01*
X37885714Y52276191D01*
X37885714Y52657143D01*
X37838095Y52752381D01*
X37790476Y52800000D01*
X37695238Y52847620D01*
X37504761Y52847620D01*
X37409523Y52800000D01*
X37361904Y52752381D01*
X37314285Y52657143D01*
X37314285Y52419048D01*
X37361904Y52323810D01*
X37409523Y52276191D01*
X37504761Y52228572D01*
X37695238Y52228572D01*
X37790476Y52276191D01*
X37838095Y52323810D01*
X37885714Y52419048D01*
%TO.C,R4*%
X21426372Y54947620D02*
X21093039Y55423810D01*
X20854943Y54947620D02*
X20854943Y55947620D01*
X21235896Y55947620D01*
X21331134Y55900000D01*
X21378753Y55852381D01*
X21426372Y55757143D01*
X21426372Y55614286D01*
X21378753Y55519048D01*
X21331134Y55471429D01*
X21235896Y55423810D01*
X20854943Y55423810D01*
X22283515Y55614286D02*
X22283515Y54947620D01*
X22045419Y55995239D02*
X21807324Y55280953D01*
X22426372Y55280953D01*
%TO.C,U6*%
X45648477Y20425974D02*
X45076057Y19853554D01*
X45042385Y19752539D01*
X45042385Y19685195D01*
X45076057Y19584180D01*
X45210744Y19449493D01*
X45311759Y19415821D01*
X45379103Y19415821D01*
X45480118Y19449493D01*
X46052538Y20021913D01*
X46692301Y19382149D02*
X46557614Y19516836D01*
X46456599Y19550508D01*
X46389255Y19550508D01*
X46220896Y19516836D01*
X46052538Y19415821D01*
X45783164Y19146447D01*
X45749492Y19045432D01*
X45749492Y18978088D01*
X45783164Y18877073D01*
X45917851Y18742386D01*
X46018866Y18708714D01*
X46086209Y18708714D01*
X46187225Y18742386D01*
X46355583Y18910745D01*
X46389255Y19011760D01*
X46389255Y19079104D01*
X46355583Y19180119D01*
X46220896Y19314806D01*
X46119881Y19348478D01*
X46052538Y19348478D01*
X45951522Y19314806D01*
%TO.C,R19*%
X31352380Y38857143D02*
X30876190Y38523810D01*
X31352380Y38285715D02*
X30352380Y38285715D01*
X30352380Y38666667D01*
X30400000Y38761905D01*
X30447619Y38809524D01*
X30542857Y38857143D01*
X30685714Y38857143D01*
X30780952Y38809524D01*
X30828571Y38761905D01*
X30876190Y38666667D01*
X30876190Y38285715D01*
X31352380Y39809524D02*
X31352380Y39238096D01*
X31352380Y39523810D02*
X30352380Y39523810D01*
X30495238Y39428572D01*
X30590476Y39333334D01*
X30638095Y39238096D01*
X31352380Y40285715D02*
X31352380Y40476191D01*
X31304761Y40571429D01*
X31257142Y40619048D01*
X31114285Y40714286D01*
X30923809Y40761905D01*
X30542857Y40761905D01*
X30447619Y40714286D01*
X30400000Y40666667D01*
X30352380Y40571429D01*
X30352380Y40380953D01*
X30400000Y40285715D01*
X30447619Y40238096D01*
X30542857Y40190477D01*
X30780952Y40190477D01*
X30876190Y40238096D01*
X30923809Y40285715D01*
X30971428Y40380953D01*
X30971428Y40571429D01*
X30923809Y40666667D01*
X30876190Y40714286D01*
X30780952Y40761905D01*
%TO.C,R10*%
X32852380Y38857143D02*
X32376190Y38523810D01*
X32852380Y38285715D02*
X31852380Y38285715D01*
X31852380Y38666667D01*
X31900000Y38761905D01*
X31947619Y38809524D01*
X32042857Y38857143D01*
X32185714Y38857143D01*
X32280952Y38809524D01*
X32328571Y38761905D01*
X32376190Y38666667D01*
X32376190Y38285715D01*
X32852380Y39809524D02*
X32852380Y39238096D01*
X32852380Y39523810D02*
X31852380Y39523810D01*
X31995238Y39428572D01*
X32090476Y39333334D01*
X32138095Y39238096D01*
X31852380Y40428572D02*
X31852380Y40523810D01*
X31900000Y40619048D01*
X31947619Y40666667D01*
X32042857Y40714286D01*
X32233333Y40761905D01*
X32471428Y40761905D01*
X32661904Y40714286D01*
X32757142Y40666667D01*
X32804761Y40619048D01*
X32852380Y40523810D01*
X32852380Y40428572D01*
X32804761Y40333334D01*
X32757142Y40285715D01*
X32661904Y40238096D01*
X32471428Y40190477D01*
X32233333Y40190477D01*
X32042857Y40238096D01*
X31947619Y40285715D01*
X31900000Y40333334D01*
X31852380Y40428572D01*
%TO.C,J1*%
X38866666Y59547620D02*
X38866666Y58833334D01*
X38819047Y58690477D01*
X38723809Y58595239D01*
X38580952Y58547620D01*
X38485714Y58547620D01*
X39866666Y58547620D02*
X39295238Y58547620D01*
X39580952Y58547620D02*
X39580952Y59547620D01*
X39485714Y59404762D01*
X39390476Y59309524D01*
X39295238Y59261905D01*
%TO.C,D2*%
X18761904Y56547620D02*
X18761904Y57547620D01*
X19000000Y57547620D01*
X19142857Y57500000D01*
X19238095Y57404762D01*
X19285714Y57309524D01*
X19333333Y57119048D01*
X19333333Y56976191D01*
X19285714Y56785715D01*
X19238095Y56690477D01*
X19142857Y56595239D01*
X19000000Y56547620D01*
X18761904Y56547620D01*
X19714285Y57452381D02*
X19761904Y57500000D01*
X19857142Y57547620D01*
X20095238Y57547620D01*
X20190476Y57500000D01*
X20238095Y57452381D01*
X20285714Y57357143D01*
X20285714Y57261905D01*
X20238095Y57119048D01*
X19666666Y56547620D01*
X20285714Y56547620D01*
%TO.C,R25*%
X18352380Y51557143D02*
X17876190Y51223810D01*
X18352380Y50985715D02*
X17352380Y50985715D01*
X17352380Y51366667D01*
X17400000Y51461905D01*
X17447619Y51509524D01*
X17542857Y51557143D01*
X17685714Y51557143D01*
X17780952Y51509524D01*
X17828571Y51461905D01*
X17876190Y51366667D01*
X17876190Y50985715D01*
X17447619Y51938096D02*
X17400000Y51985715D01*
X17352380Y52080953D01*
X17352380Y52319048D01*
X17400000Y52414286D01*
X17447619Y52461905D01*
X17542857Y52509524D01*
X17638095Y52509524D01*
X17780952Y52461905D01*
X18352380Y51890477D01*
X18352380Y52509524D01*
X17352380Y53414286D02*
X17352380Y52938096D01*
X17828571Y52890477D01*
X17780952Y52938096D01*
X17733333Y53033334D01*
X17733333Y53271429D01*
X17780952Y53366667D01*
X17828571Y53414286D01*
X17923809Y53461905D01*
X18161904Y53461905D01*
X18257142Y53414286D01*
X18304761Y53366667D01*
X18352380Y53271429D01*
X18352380Y53033334D01*
X18304761Y52938096D01*
X18257142Y52890477D01*
%TO.C,U3*%
X21238095Y21547620D02*
X21238095Y20738096D01*
X21285714Y20642858D01*
X21333333Y20595239D01*
X21428571Y20547620D01*
X21619047Y20547620D01*
X21714285Y20595239D01*
X21761904Y20642858D01*
X21809523Y20738096D01*
X21809523Y21547620D01*
X22190476Y21547620D02*
X22809523Y21547620D01*
X22476190Y21166667D01*
X22619047Y21166667D01*
X22714285Y21119048D01*
X22761904Y21071429D01*
X22809523Y20976191D01*
X22809523Y20738096D01*
X22761904Y20642858D01*
X22714285Y20595239D01*
X22619047Y20547620D01*
X22333333Y20547620D01*
X22238095Y20595239D01*
X22190476Y20642858D01*
%TO.C,R22*%
X39057142Y39847620D02*
X38723809Y40323810D01*
X38485714Y39847620D02*
X38485714Y40847620D01*
X38866666Y40847620D01*
X38961904Y40800000D01*
X39009523Y40752381D01*
X39057142Y40657143D01*
X39057142Y40514286D01*
X39009523Y40419048D01*
X38961904Y40371429D01*
X38866666Y40323810D01*
X38485714Y40323810D01*
X39438095Y40752381D02*
X39485714Y40800000D01*
X39580952Y40847620D01*
X39819047Y40847620D01*
X39914285Y40800000D01*
X39961904Y40752381D01*
X40009523Y40657143D01*
X40009523Y40561905D01*
X39961904Y40419048D01*
X39390476Y39847620D01*
X40009523Y39847620D01*
X40390476Y40752381D02*
X40438095Y40800000D01*
X40533333Y40847620D01*
X40771428Y40847620D01*
X40866666Y40800000D01*
X40914285Y40752381D01*
X40961904Y40657143D01*
X40961904Y40561905D01*
X40914285Y40419048D01*
X40342857Y39847620D01*
X40961904Y39847620D01*
%TO.C,D1*%
X16661904Y56547620D02*
X16661904Y57547620D01*
X16900000Y57547620D01*
X17042857Y57500000D01*
X17138095Y57404762D01*
X17185714Y57309524D01*
X17233333Y57119048D01*
X17233333Y56976191D01*
X17185714Y56785715D01*
X17138095Y56690477D01*
X17042857Y56595239D01*
X16900000Y56547620D01*
X16661904Y56547620D01*
X18185714Y56547620D02*
X17614285Y56547620D01*
X17900000Y56547620D02*
X17900000Y57547620D01*
X17804761Y57404762D01*
X17709523Y57309524D01*
X17614285Y57261905D01*
%TO.C,R21*%
X39057142Y41147620D02*
X38723809Y41623810D01*
X38485714Y41147620D02*
X38485714Y42147620D01*
X38866666Y42147620D01*
X38961904Y42100000D01*
X39009523Y42052381D01*
X39057142Y41957143D01*
X39057142Y41814286D01*
X39009523Y41719048D01*
X38961904Y41671429D01*
X38866666Y41623810D01*
X38485714Y41623810D01*
X39438095Y42052381D02*
X39485714Y42100000D01*
X39580952Y42147620D01*
X39819047Y42147620D01*
X39914285Y42100000D01*
X39961904Y42052381D01*
X40009523Y41957143D01*
X40009523Y41861905D01*
X39961904Y41719048D01*
X39390476Y41147620D01*
X40009523Y41147620D01*
X40961904Y41147620D02*
X40390476Y41147620D01*
X40676190Y41147620D02*
X40676190Y42147620D01*
X40580952Y42004762D01*
X40485714Y41909524D01*
X40390476Y41861905D01*
%TO.C,Q3*%
X44104761Y40752381D02*
X44009523Y40800000D01*
X43914285Y40895239D01*
X43771428Y41038096D01*
X43676190Y41085715D01*
X43580952Y41085715D01*
X43628571Y40847620D02*
X43533333Y40895239D01*
X43438095Y40990477D01*
X43390476Y41180953D01*
X43390476Y41514286D01*
X43438095Y41704762D01*
X43533333Y41800000D01*
X43628571Y41847620D01*
X43819047Y41847620D01*
X43914285Y41800000D01*
X44009523Y41704762D01*
X44057142Y41514286D01*
X44057142Y41180953D01*
X44009523Y40990477D01*
X43914285Y40895239D01*
X43819047Y40847620D01*
X43628571Y40847620D01*
X44390476Y41847620D02*
X45009523Y41847620D01*
X44676190Y41466667D01*
X44819047Y41466667D01*
X44914285Y41419048D01*
X44961904Y41371429D01*
X45009523Y41276191D01*
X45009523Y41038096D01*
X44961904Y40942858D01*
X44914285Y40895239D01*
X44819047Y40847620D01*
X44533333Y40847620D01*
X44438095Y40895239D01*
X44390476Y40942858D01*
%TO.C,D7*%
X29961904Y51397620D02*
X29961904Y52397620D01*
X30200000Y52397620D01*
X30342857Y52350000D01*
X30438095Y52254762D01*
X30485714Y52159524D01*
X30533333Y51969048D01*
X30533333Y51826191D01*
X30485714Y51635715D01*
X30438095Y51540477D01*
X30342857Y51445239D01*
X30200000Y51397620D01*
X29961904Y51397620D01*
X30866666Y52397620D02*
X31533333Y52397620D01*
X31104761Y51397620D01*
%TO.C,C9*%
X34557142Y49633334D02*
X34604761Y49585715D01*
X34652380Y49442858D01*
X34652380Y49347620D01*
X34604761Y49204762D01*
X34509523Y49109524D01*
X34414285Y49061905D01*
X34223809Y49014286D01*
X34080952Y49014286D01*
X33890476Y49061905D01*
X33795238Y49109524D01*
X33700000Y49204762D01*
X33652380Y49347620D01*
X33652380Y49442858D01*
X33700000Y49585715D01*
X33747619Y49633334D01*
X34652380Y50109524D02*
X34652380Y50300000D01*
X34604761Y50395239D01*
X34557142Y50442858D01*
X34414285Y50538096D01*
X34223809Y50585715D01*
X33842857Y50585715D01*
X33747619Y50538096D01*
X33700000Y50490477D01*
X33652380Y50395239D01*
X33652380Y50204762D01*
X33700000Y50109524D01*
X33747619Y50061905D01*
X33842857Y50014286D01*
X34080952Y50014286D01*
X34176190Y50061905D01*
X34223809Y50109524D01*
X34271428Y50204762D01*
X34271428Y50395239D01*
X34223809Y50490477D01*
X34176190Y50538096D01*
X34080952Y50585715D01*
%TO.C,R16*%
X36157142Y47747620D02*
X35823809Y48223810D01*
X35585714Y47747620D02*
X35585714Y48747620D01*
X35966666Y48747620D01*
X36061904Y48700000D01*
X36109523Y48652381D01*
X36157142Y48557143D01*
X36157142Y48414286D01*
X36109523Y48319048D01*
X36061904Y48271429D01*
X35966666Y48223810D01*
X35585714Y48223810D01*
X37109523Y47747620D02*
X36538095Y47747620D01*
X36823809Y47747620D02*
X36823809Y48747620D01*
X36728571Y48604762D01*
X36633333Y48509524D01*
X36538095Y48461905D01*
X37966666Y48747620D02*
X37776190Y48747620D01*
X37680952Y48700000D01*
X37633333Y48652381D01*
X37538095Y48509524D01*
X37490476Y48319048D01*
X37490476Y47938096D01*
X37538095Y47842858D01*
X37585714Y47795239D01*
X37680952Y47747620D01*
X37871428Y47747620D01*
X37966666Y47795239D01*
X38014285Y47842858D01*
X38061904Y47938096D01*
X38061904Y48176191D01*
X38014285Y48271429D01*
X37966666Y48319048D01*
X37871428Y48366667D01*
X37680952Y48366667D01*
X37585714Y48319048D01*
X37538095Y48271429D01*
X37490476Y48176191D01*
%TO.C,J3*%
X1266666Y53447620D02*
X1266666Y52733334D01*
X1219047Y52590477D01*
X1123809Y52495239D01*
X980952Y52447620D01*
X885714Y52447620D01*
X1647619Y53447620D02*
X2266666Y53447620D01*
X1933333Y53066667D01*
X2076190Y53066667D01*
X2171428Y53019048D01*
X2219047Y52971429D01*
X2266666Y52876191D01*
X2266666Y52638096D01*
X2219047Y52542858D01*
X2171428Y52495239D01*
X2076190Y52447620D01*
X1790476Y52447620D01*
X1695238Y52495239D01*
X1647619Y52542858D01*
%TO.C,C1*%
X2787142Y38333334D02*
X2834761Y38285715D01*
X2882380Y38142858D01*
X2882380Y38047620D01*
X2834761Y37904762D01*
X2739523Y37809524D01*
X2644285Y37761905D01*
X2453809Y37714286D01*
X2310952Y37714286D01*
X2120476Y37761905D01*
X2025238Y37809524D01*
X1930000Y37904762D01*
X1882380Y38047620D01*
X1882380Y38142858D01*
X1930000Y38285715D01*
X1977619Y38333334D01*
X2882380Y39285715D02*
X2882380Y38714286D01*
X2882380Y39000000D02*
X1882380Y39000000D01*
X2025238Y38904762D01*
X2120476Y38809524D01*
X2168095Y38714286D01*
%TO.C,R5*%
X23533333Y54947620D02*
X23200000Y55423810D01*
X22961904Y54947620D02*
X22961904Y55947620D01*
X23342857Y55947620D01*
X23438095Y55900000D01*
X23485714Y55852381D01*
X23533333Y55757143D01*
X23533333Y55614286D01*
X23485714Y55519048D01*
X23438095Y55471429D01*
X23342857Y55423810D01*
X22961904Y55423810D01*
X24438095Y55947620D02*
X23961904Y55947620D01*
X23914285Y55471429D01*
X23961904Y55519048D01*
X24057142Y55566667D01*
X24295238Y55566667D01*
X24390476Y55519048D01*
X24438095Y55471429D01*
X24485714Y55376191D01*
X24485714Y55138096D01*
X24438095Y55042858D01*
X24390476Y54995239D01*
X24295238Y54947620D01*
X24057142Y54947620D01*
X23961904Y54995239D01*
X23914285Y55042858D01*
%TO.C,Q1*%
X46004761Y51652381D02*
X45909523Y51700000D01*
X45814285Y51795239D01*
X45671428Y51938096D01*
X45576190Y51985715D01*
X45480952Y51985715D01*
X45528571Y51747620D02*
X45433333Y51795239D01*
X45338095Y51890477D01*
X45290476Y52080953D01*
X45290476Y52414286D01*
X45338095Y52604762D01*
X45433333Y52700000D01*
X45528571Y52747620D01*
X45719047Y52747620D01*
X45814285Y52700000D01*
X45909523Y52604762D01*
X45957142Y52414286D01*
X45957142Y52080953D01*
X45909523Y51890477D01*
X45814285Y51795239D01*
X45719047Y51747620D01*
X45528571Y51747620D01*
X46909523Y51747620D02*
X46338095Y51747620D01*
X46623809Y51747620D02*
X46623809Y52747620D01*
X46528571Y52604762D01*
X46433333Y52509524D01*
X46338095Y52461905D01*
%TO.C,C5*%
X27129610Y39065313D02*
X27062267Y39065313D01*
X26927580Y39132657D01*
X26860236Y39200000D01*
X26792893Y39334688D01*
X26792893Y39469375D01*
X26826564Y39570390D01*
X26927580Y39738749D01*
X27028595Y39839764D01*
X27196954Y39940779D01*
X27297969Y39974451D01*
X27432656Y39974451D01*
X27567343Y39907107D01*
X27634687Y39839764D01*
X27702030Y39705077D01*
X27702030Y39637733D01*
X28409137Y39065313D02*
X28072419Y39402031D01*
X27702030Y39098985D01*
X27769374Y39098985D01*
X27870389Y39065313D01*
X28038748Y38896955D01*
X28072419Y38795939D01*
X28072419Y38728596D01*
X28038748Y38627581D01*
X27870389Y38459222D01*
X27769374Y38425550D01*
X27702030Y38425550D01*
X27601015Y38459222D01*
X27432656Y38627581D01*
X27398984Y38728596D01*
X27398984Y38795939D01*
%TO.C,U2*%
X352380Y28438096D02*
X1161904Y28438096D01*
X1257142Y28485715D01*
X1304761Y28533334D01*
X1352380Y28628572D01*
X1352380Y28819048D01*
X1304761Y28914286D01*
X1257142Y28961905D01*
X1161904Y29009524D01*
X352380Y29009524D01*
X447619Y29438096D02*
X400000Y29485715D01*
X352380Y29580953D01*
X352380Y29819048D01*
X400000Y29914286D01*
X447619Y29961905D01*
X542857Y30009524D01*
X638095Y30009524D01*
X780952Y29961905D01*
X1352380Y29390477D01*
X1352380Y30009524D01*
%TO.C,R6*%
X25452380Y21133334D02*
X24976190Y20800000D01*
X25452380Y20561905D02*
X24452380Y20561905D01*
X24452380Y20942858D01*
X24500000Y21038096D01*
X24547619Y21085715D01*
X24642857Y21133334D01*
X24785714Y21133334D01*
X24880952Y21085715D01*
X24928571Y21038096D01*
X24976190Y20942858D01*
X24976190Y20561905D01*
X24452380Y21990477D02*
X24452380Y21800000D01*
X24500000Y21704762D01*
X24547619Y21657143D01*
X24690476Y21561905D01*
X24880952Y21514286D01*
X25261904Y21514286D01*
X25357142Y21561905D01*
X25404761Y21609524D01*
X25452380Y21704762D01*
X25452380Y21895239D01*
X25404761Y21990477D01*
X25357142Y22038096D01*
X25261904Y22085715D01*
X25023809Y22085715D01*
X24928571Y22038096D01*
X24880952Y21990477D01*
X24833333Y21895239D01*
X24833333Y21704762D01*
X24880952Y21609524D01*
X24928571Y21561905D01*
X25023809Y21514286D01*
%TO.C,R24*%
X16852380Y51557143D02*
X16376190Y51223810D01*
X16852380Y50985715D02*
X15852380Y50985715D01*
X15852380Y51366667D01*
X15900000Y51461905D01*
X15947619Y51509524D01*
X16042857Y51557143D01*
X16185714Y51557143D01*
X16280952Y51509524D01*
X16328571Y51461905D01*
X16376190Y51366667D01*
X16376190Y50985715D01*
X15947619Y51938096D02*
X15900000Y51985715D01*
X15852380Y52080953D01*
X15852380Y52319048D01*
X15900000Y52414286D01*
X15947619Y52461905D01*
X16042857Y52509524D01*
X16138095Y52509524D01*
X16280952Y52461905D01*
X16852380Y51890477D01*
X16852380Y52509524D01*
X16185714Y53366667D02*
X16852380Y53366667D01*
X15804761Y53128572D02*
X16519047Y52890477D01*
X16519047Y53509524D01*
%TO.C,C8*%
X23333333Y45642858D02*
X23285714Y45595239D01*
X23142857Y45547620D01*
X23047619Y45547620D01*
X22904761Y45595239D01*
X22809523Y45690477D01*
X22761904Y45785715D01*
X22714285Y45976191D01*
X22714285Y46119048D01*
X22761904Y46309524D01*
X22809523Y46404762D01*
X22904761Y46500000D01*
X23047619Y46547620D01*
X23142857Y46547620D01*
X23285714Y46500000D01*
X23333333Y46452381D01*
X23904761Y46119048D02*
X23809523Y46166667D01*
X23761904Y46214286D01*
X23714285Y46309524D01*
X23714285Y46357143D01*
X23761904Y46452381D01*
X23809523Y46500000D01*
X23904761Y46547620D01*
X24095238Y46547620D01*
X24190476Y46500000D01*
X24238095Y46452381D01*
X24285714Y46357143D01*
X24285714Y46309524D01*
X24238095Y46214286D01*
X24190476Y46166667D01*
X24095238Y46119048D01*
X23904761Y46119048D01*
X23809523Y46071429D01*
X23761904Y46023810D01*
X23714285Y45928572D01*
X23714285Y45738096D01*
X23761904Y45642858D01*
X23809523Y45595239D01*
X23904761Y45547620D01*
X24095238Y45547620D01*
X24190476Y45595239D01*
X24238095Y45642858D01*
X24285714Y45738096D01*
X24285714Y45928572D01*
X24238095Y46023810D01*
X24190476Y46071429D01*
X24095238Y46119048D01*
%TO.C,C10*%
X2357142Y50942858D02*
X2309523Y50895239D01*
X2166666Y50847620D01*
X2071428Y50847620D01*
X1928571Y50895239D01*
X1833333Y50990477D01*
X1785714Y51085715D01*
X1738095Y51276191D01*
X1738095Y51419048D01*
X1785714Y51609524D01*
X1833333Y51704762D01*
X1928571Y51800000D01*
X2071428Y51847620D01*
X2166666Y51847620D01*
X2309523Y51800000D01*
X2357142Y51752381D01*
X3309523Y50847620D02*
X2738095Y50847620D01*
X3023809Y50847620D02*
X3023809Y51847620D01*
X2928571Y51704762D01*
X2833333Y51609524D01*
X2738095Y51561905D01*
X3928571Y51847620D02*
X4023809Y51847620D01*
X4119047Y51800000D01*
X4166666Y51752381D01*
X4214285Y51657143D01*
X4261904Y51466667D01*
X4261904Y51228572D01*
X4214285Y51038096D01*
X4166666Y50942858D01*
X4119047Y50895239D01*
X4023809Y50847620D01*
X3928571Y50847620D01*
X3833333Y50895239D01*
X3785714Y50942858D01*
X3738095Y51038096D01*
X3690476Y51228572D01*
X3690476Y51466667D01*
X3738095Y51657143D01*
X3785714Y51752381D01*
X3833333Y51800000D01*
X3928571Y51847620D01*
%TO.C,Q2*%
X46004761Y48152381D02*
X45909523Y48200000D01*
X45814285Y48295239D01*
X45671428Y48438096D01*
X45576190Y48485715D01*
X45480952Y48485715D01*
X45528571Y48247620D02*
X45433333Y48295239D01*
X45338095Y48390477D01*
X45290476Y48580953D01*
X45290476Y48914286D01*
X45338095Y49104762D01*
X45433333Y49200000D01*
X45528571Y49247620D01*
X45719047Y49247620D01*
X45814285Y49200000D01*
X45909523Y49104762D01*
X45957142Y48914286D01*
X45957142Y48580953D01*
X45909523Y48390477D01*
X45814285Y48295239D01*
X45719047Y48247620D01*
X45528571Y48247620D01*
X46338095Y49152381D02*
X46385714Y49200000D01*
X46480952Y49247620D01*
X46719047Y49247620D01*
X46814285Y49200000D01*
X46861904Y49152381D01*
X46909523Y49057143D01*
X46909523Y48961905D01*
X46861904Y48819048D01*
X46290476Y48247620D01*
X46909523Y48247620D01*
%TO.C,U5*%
X38048477Y27625974D02*
X37476057Y27053554D01*
X37442385Y26952539D01*
X37442385Y26885195D01*
X37476057Y26784180D01*
X37610744Y26649493D01*
X37711759Y26615821D01*
X37779103Y26615821D01*
X37880118Y26649493D01*
X38452538Y27221913D01*
X39125973Y26548478D02*
X38789255Y26885195D01*
X38418866Y26582149D01*
X38486209Y26582149D01*
X38587225Y26548478D01*
X38755583Y26380119D01*
X38789255Y26279104D01*
X38789255Y26211760D01*
X38755583Y26110745D01*
X38587225Y25942386D01*
X38486209Y25908714D01*
X38418866Y25908714D01*
X38317851Y25942386D01*
X38149492Y26110745D01*
X38115820Y26211760D01*
X38115820Y26279104D01*
%TO.C,J2*%
X38866666Y57047620D02*
X38866666Y56333334D01*
X38819047Y56190477D01*
X38723809Y56095239D01*
X38580952Y56047620D01*
X38485714Y56047620D01*
X39295238Y56952381D02*
X39342857Y57000000D01*
X39438095Y57047620D01*
X39676190Y57047620D01*
X39771428Y57000000D01*
X39819047Y56952381D01*
X39866666Y56857143D01*
X39866666Y56761905D01*
X39819047Y56619048D01*
X39247619Y56047620D01*
X39866666Y56047620D01*
%TO.C,R27*%
X44257142Y55347620D02*
X43923809Y55823810D01*
X43685714Y55347620D02*
X43685714Y56347620D01*
X44066666Y56347620D01*
X44161904Y56300000D01*
X44209523Y56252381D01*
X44257142Y56157143D01*
X44257142Y56014286D01*
X44209523Y55919048D01*
X44161904Y55871429D01*
X44066666Y55823810D01*
X43685714Y55823810D01*
X44638095Y56252381D02*
X44685714Y56300000D01*
X44780952Y56347620D01*
X45019047Y56347620D01*
X45114285Y56300000D01*
X45161904Y56252381D01*
X45209523Y56157143D01*
X45209523Y56061905D01*
X45161904Y55919048D01*
X44590476Y55347620D01*
X45209523Y55347620D01*
X45542857Y56347620D02*
X46209523Y56347620D01*
X45780952Y55347620D01*
%TO.C,C11*%
X12857142Y51842858D02*
X12809523Y51795239D01*
X12666666Y51747620D01*
X12571428Y51747620D01*
X12428571Y51795239D01*
X12333333Y51890477D01*
X12285714Y51985715D01*
X12238095Y52176191D01*
X12238095Y52319048D01*
X12285714Y52509524D01*
X12333333Y52604762D01*
X12428571Y52700000D01*
X12571428Y52747620D01*
X12666666Y52747620D01*
X12809523Y52700000D01*
X12857142Y52652381D01*
X13809523Y51747620D02*
X13238095Y51747620D01*
X13523809Y51747620D02*
X13523809Y52747620D01*
X13428571Y52604762D01*
X13333333Y52509524D01*
X13238095Y52461905D01*
X14761904Y51747620D02*
X14190476Y51747620D01*
X14476190Y51747620D02*
X14476190Y52747620D01*
X14380952Y52604762D01*
X14285714Y52509524D01*
X14190476Y52461905D01*
%TO.C,C7*%
X42429610Y23865313D02*
X42362267Y23865313D01*
X42227580Y23932657D01*
X42160236Y24000000D01*
X42092893Y24134688D01*
X42092893Y24269375D01*
X42126564Y24370390D01*
X42227580Y24538749D01*
X42328595Y24639764D01*
X42496954Y24740779D01*
X42597969Y24774451D01*
X42732656Y24774451D01*
X42867343Y24707107D01*
X42934687Y24639764D01*
X43002030Y24505077D01*
X43002030Y24437733D01*
X43305076Y24269375D02*
X43776480Y23797970D01*
X42766328Y23393909D01*
%TO.C,D6*%
X22761904Y47547620D02*
X22761904Y48547620D01*
X23000000Y48547620D01*
X23142857Y48500000D01*
X23238095Y48404762D01*
X23285714Y48309524D01*
X23333333Y48119048D01*
X23333333Y47976191D01*
X23285714Y47785715D01*
X23238095Y47690477D01*
X23142857Y47595239D01*
X23000000Y47547620D01*
X22761904Y47547620D01*
X24190476Y48547620D02*
X24000000Y48547620D01*
X23904761Y48500000D01*
X23857142Y48452381D01*
X23761904Y48309524D01*
X23714285Y48119048D01*
X23714285Y47738096D01*
X23761904Y47642858D01*
X23809523Y47595239D01*
X23904761Y47547620D01*
X24095238Y47547620D01*
X24190476Y47595239D01*
X24238095Y47642858D01*
X24285714Y47738096D01*
X24285714Y47976191D01*
X24238095Y48071429D01*
X24190476Y48119048D01*
X24095238Y48166667D01*
X23904761Y48166667D01*
X23809523Y48119048D01*
X23761904Y48071429D01*
X23714285Y47976191D01*
%TO.C,R20*%
X46057142Y45347620D02*
X45723809Y45823810D01*
X45485714Y45347620D02*
X45485714Y46347620D01*
X45866666Y46347620D01*
X45961904Y46300000D01*
X46009523Y46252381D01*
X46057142Y46157143D01*
X46057142Y46014286D01*
X46009523Y45919048D01*
X45961904Y45871429D01*
X45866666Y45823810D01*
X45485714Y45823810D01*
X46438095Y46252381D02*
X46485714Y46300000D01*
X46580952Y46347620D01*
X46819047Y46347620D01*
X46914285Y46300000D01*
X46961904Y46252381D01*
X47009523Y46157143D01*
X47009523Y46061905D01*
X46961904Y45919048D01*
X46390476Y45347620D01*
X47009523Y45347620D01*
X47628571Y46347620D02*
X47723809Y46347620D01*
X47819047Y46300000D01*
X47866666Y46252381D01*
X47914285Y46157143D01*
X47961904Y45966667D01*
X47961904Y45728572D01*
X47914285Y45538096D01*
X47866666Y45442858D01*
X47819047Y45395239D01*
X47723809Y45347620D01*
X47628571Y45347620D01*
X47533333Y45395239D01*
X47485714Y45442858D01*
X47438095Y45538096D01*
X47390476Y45728572D01*
X47390476Y45966667D01*
X47438095Y46157143D01*
X47485714Y46252381D01*
X47533333Y46300000D01*
X47628571Y46347620D01*
%TO.C,R7*%
X36933333Y50247620D02*
X36600000Y50723810D01*
X36361904Y50247620D02*
X36361904Y51247620D01*
X36742857Y51247620D01*
X36838095Y51200000D01*
X36885714Y51152381D01*
X36933333Y51057143D01*
X36933333Y50914286D01*
X36885714Y50819048D01*
X36838095Y50771429D01*
X36742857Y50723810D01*
X36361904Y50723810D01*
X37266666Y51247620D02*
X37933333Y51247620D01*
X37504761Y50247620D01*
%TO.C,C3*%
X1257142Y19833334D02*
X1304761Y19785715D01*
X1352380Y19642858D01*
X1352380Y19547620D01*
X1304761Y19404762D01*
X1209523Y19309524D01*
X1114285Y19261905D01*
X923809Y19214286D01*
X780952Y19214286D01*
X590476Y19261905D01*
X495238Y19309524D01*
X400000Y19404762D01*
X352380Y19547620D01*
X352380Y19642858D01*
X400000Y19785715D01*
X447619Y19833334D01*
X352380Y20166667D02*
X352380Y20785715D01*
X733333Y20452381D01*
X733333Y20595239D01*
X780952Y20690477D01*
X828571Y20738096D01*
X923809Y20785715D01*
X1161904Y20785715D01*
X1257142Y20738096D01*
X1304761Y20690477D01*
X1352380Y20595239D01*
X1352380Y20309524D01*
X1304761Y20214286D01*
X1257142Y20166667D01*
%TO.C,D5*%
X22761904Y49547620D02*
X22761904Y50547620D01*
X23000000Y50547620D01*
X23142857Y50500000D01*
X23238095Y50404762D01*
X23285714Y50309524D01*
X23333333Y50119048D01*
X23333333Y49976191D01*
X23285714Y49785715D01*
X23238095Y49690477D01*
X23142857Y49595239D01*
X23000000Y49547620D01*
X22761904Y49547620D01*
X24238095Y50547620D02*
X23761904Y50547620D01*
X23714285Y50071429D01*
X23761904Y50119048D01*
X23857142Y50166667D01*
X24095238Y50166667D01*
X24190476Y50119048D01*
X24238095Y50071429D01*
X24285714Y49976191D01*
X24285714Y49738096D01*
X24238095Y49642858D01*
X24190476Y49595239D01*
X24095238Y49547620D01*
X23857142Y49547620D01*
X23761904Y49595239D01*
X23714285Y49642858D01*
%TO.C,U7*%
X652380Y45538096D02*
X1461904Y45538096D01*
X1557142Y45585715D01*
X1604761Y45633334D01*
X1652380Y45728572D01*
X1652380Y45919048D01*
X1604761Y46014286D01*
X1557142Y46061905D01*
X1461904Y46109524D01*
X652380Y46109524D01*
X652380Y46490477D02*
X652380Y47157143D01*
X1652380Y46728572D01*
%TO.C,R13*%
X47352380Y34432143D02*
X46876190Y34098810D01*
X47352380Y33860715D02*
X46352380Y33860715D01*
X46352380Y34241667D01*
X46400000Y34336905D01*
X46447619Y34384524D01*
X46542857Y34432143D01*
X46685714Y34432143D01*
X46780952Y34384524D01*
X46828571Y34336905D01*
X46876190Y34241667D01*
X46876190Y33860715D01*
X47352380Y35384524D02*
X47352380Y34813096D01*
X47352380Y35098810D02*
X46352380Y35098810D01*
X46495238Y35003572D01*
X46590476Y34908334D01*
X46638095Y34813096D01*
X46352380Y35717858D02*
X46352380Y36336905D01*
X46733333Y36003572D01*
X46733333Y36146429D01*
X46780952Y36241667D01*
X46828571Y36289286D01*
X46923809Y36336905D01*
X47161904Y36336905D01*
X47257142Y36289286D01*
X47304761Y36241667D01*
X47352380Y36146429D01*
X47352380Y35860715D01*
X47304761Y35765477D01*
X47257142Y35717858D01*
%TO.C,R12*%
X35852380Y38857143D02*
X35376190Y38523810D01*
X35852380Y38285715D02*
X34852380Y38285715D01*
X34852380Y38666667D01*
X34900000Y38761905D01*
X34947619Y38809524D01*
X35042857Y38857143D01*
X35185714Y38857143D01*
X35280952Y38809524D01*
X35328571Y38761905D01*
X35376190Y38666667D01*
X35376190Y38285715D01*
X35852380Y39809524D02*
X35852380Y39238096D01*
X35852380Y39523810D02*
X34852380Y39523810D01*
X34995238Y39428572D01*
X35090476Y39333334D01*
X35138095Y39238096D01*
X34947619Y40190477D02*
X34900000Y40238096D01*
X34852380Y40333334D01*
X34852380Y40571429D01*
X34900000Y40666667D01*
X34947619Y40714286D01*
X35042857Y40761905D01*
X35138095Y40761905D01*
X35280952Y40714286D01*
X35852380Y40142858D01*
X35852380Y40761905D01*
%TO.C,U9*%
X29938095Y45247620D02*
X29938095Y44438096D01*
X29985714Y44342858D01*
X30033333Y44295239D01*
X30128571Y44247620D01*
X30319047Y44247620D01*
X30414285Y44295239D01*
X30461904Y44342858D01*
X30509523Y44438096D01*
X30509523Y45247620D01*
X31033333Y44247620D02*
X31223809Y44247620D01*
X31319047Y44295239D01*
X31366666Y44342858D01*
X31461904Y44485715D01*
X31509523Y44676191D01*
X31509523Y45057143D01*
X31461904Y45152381D01*
X31414285Y45200000D01*
X31319047Y45247620D01*
X31128571Y45247620D01*
X31033333Y45200000D01*
X30985714Y45152381D01*
X30938095Y45057143D01*
X30938095Y44819048D01*
X30985714Y44723810D01*
X31033333Y44676191D01*
X31128571Y44628572D01*
X31319047Y44628572D01*
X31414285Y44676191D01*
X31461904Y44723810D01*
X31509523Y44819048D01*
%TO.C,R2*%
X17233333Y54947620D02*
X16900000Y55423810D01*
X16661904Y54947620D02*
X16661904Y55947620D01*
X17042857Y55947620D01*
X17138095Y55900000D01*
X17185714Y55852381D01*
X17233333Y55757143D01*
X17233333Y55614286D01*
X17185714Y55519048D01*
X17138095Y55471429D01*
X17042857Y55423810D01*
X16661904Y55423810D01*
X17614285Y55852381D02*
X17661904Y55900000D01*
X17757142Y55947620D01*
X17995238Y55947620D01*
X18090476Y55900000D01*
X18138095Y55852381D01*
X18185714Y55757143D01*
X18185714Y55661905D01*
X18138095Y55519048D01*
X17566666Y54947620D01*
X18185714Y54947620D01*
%TO.C,R8*%
X27052380Y21133334D02*
X26576190Y20800000D01*
X27052380Y20561905D02*
X26052380Y20561905D01*
X26052380Y20942858D01*
X26100000Y21038096D01*
X26147619Y21085715D01*
X26242857Y21133334D01*
X26385714Y21133334D01*
X26480952Y21085715D01*
X26528571Y21038096D01*
X26576190Y20942858D01*
X26576190Y20561905D01*
X26480952Y21704762D02*
X26433333Y21609524D01*
X26385714Y21561905D01*
X26290476Y21514286D01*
X26242857Y21514286D01*
X26147619Y21561905D01*
X26100000Y21609524D01*
X26052380Y21704762D01*
X26052380Y21895239D01*
X26100000Y21990477D01*
X26147619Y22038096D01*
X26242857Y22085715D01*
X26290476Y22085715D01*
X26385714Y22038096D01*
X26433333Y21990477D01*
X26480952Y21895239D01*
X26480952Y21704762D01*
X26528571Y21609524D01*
X26576190Y21561905D01*
X26671428Y21514286D01*
X26861904Y21514286D01*
X26957142Y21561905D01*
X27004761Y21609524D01*
X27052380Y21704762D01*
X27052380Y21895239D01*
X27004761Y21990477D01*
X26957142Y22038096D01*
X26861904Y22085715D01*
X26671428Y22085715D01*
X26576190Y22038096D01*
X26528571Y21990477D01*
X26480952Y21895239D01*
%TO.C,U10*%
X20061904Y30747620D02*
X20061904Y29938096D01*
X20109523Y29842858D01*
X20157142Y29795239D01*
X20252380Y29747620D01*
X20442857Y29747620D01*
X20538095Y29795239D01*
X20585714Y29842858D01*
X20633333Y29938096D01*
X20633333Y30747620D01*
X21633333Y29747620D02*
X21061904Y29747620D01*
X21347619Y29747620D02*
X21347619Y30747620D01*
X21252380Y30604762D01*
X21157142Y30509524D01*
X21061904Y30461905D01*
X22252380Y30747620D02*
X22347619Y30747620D01*
X22442857Y30700000D01*
X22490476Y30652381D01*
X22538095Y30557143D01*
X22585714Y30366667D01*
X22585714Y30128572D01*
X22538095Y29938096D01*
X22490476Y29842858D01*
X22442857Y29795239D01*
X22347619Y29747620D01*
X22252380Y29747620D01*
X22157142Y29795239D01*
X22109523Y29842858D01*
X22061904Y29938096D01*
X22014285Y30128572D01*
X22014285Y30366667D01*
X22061904Y30557143D01*
X22109523Y30652381D01*
X22157142Y30700000D01*
X22252380Y30747620D01*
%TO.C,D4*%
X22961904Y56547620D02*
X22961904Y57547620D01*
X23200000Y57547620D01*
X23342857Y57500000D01*
X23438095Y57404762D01*
X23485714Y57309524D01*
X23533333Y57119048D01*
X23533333Y56976191D01*
X23485714Y56785715D01*
X23438095Y56690477D01*
X23342857Y56595239D01*
X23200000Y56547620D01*
X22961904Y56547620D01*
X24390476Y57214286D02*
X24390476Y56547620D01*
X24152380Y57595239D02*
X23914285Y56880953D01*
X24533333Y56880953D01*
%TO.C,U4*%
X30648477Y35225974D02*
X30076057Y34653554D01*
X30042385Y34552539D01*
X30042385Y34485195D01*
X30076057Y34384180D01*
X30210744Y34249493D01*
X30311759Y34215821D01*
X30379103Y34215821D01*
X30480118Y34249493D01*
X31052538Y34821913D01*
X31456599Y33946447D02*
X30985194Y33475043D01*
X31557614Y34384180D02*
X30884179Y34047462D01*
X31321912Y33609730D01*
%TO.C,R18*%
X36157142Y46247620D02*
X35823809Y46723810D01*
X35585714Y46247620D02*
X35585714Y47247620D01*
X35966666Y47247620D01*
X36061904Y47200000D01*
X36109523Y47152381D01*
X36157142Y47057143D01*
X36157142Y46914286D01*
X36109523Y46819048D01*
X36061904Y46771429D01*
X35966666Y46723810D01*
X35585714Y46723810D01*
X37109523Y46247620D02*
X36538095Y46247620D01*
X36823809Y46247620D02*
X36823809Y47247620D01*
X36728571Y47104762D01*
X36633333Y47009524D01*
X36538095Y46961905D01*
X37680952Y46819048D02*
X37585714Y46866667D01*
X37538095Y46914286D01*
X37490476Y47009524D01*
X37490476Y47057143D01*
X37538095Y47152381D01*
X37585714Y47200000D01*
X37680952Y47247620D01*
X37871428Y47247620D01*
X37966666Y47200000D01*
X38014285Y47152381D01*
X38061904Y47057143D01*
X38061904Y47009524D01*
X38014285Y46914286D01*
X37966666Y46866667D01*
X37871428Y46819048D01*
X37680952Y46819048D01*
X37585714Y46771429D01*
X37538095Y46723810D01*
X37490476Y46628572D01*
X37490476Y46438096D01*
X37538095Y46342858D01*
X37585714Y46295239D01*
X37680952Y46247620D01*
X37871428Y46247620D01*
X37966666Y46295239D01*
X38014285Y46342858D01*
X38061904Y46438096D01*
X38061904Y46628572D01*
X38014285Y46723810D01*
X37966666Y46771429D01*
X37871428Y46819048D01*
D11*
%TO.C,U1*%
X1685000Y13140000D02*
X1685000Y11325000D01*
X19560000Y17000000D02*
X19560000Y13140000D01*
X1440000Y17000000D02*
X1440000Y20860000D01*
X1440000Y13140000D02*
X1685000Y13140000D01*
X19560000Y17000000D02*
X19560000Y20860000D01*
X1440000Y20860000D02*
X1685000Y20860000D01*
X1440000Y17000000D02*
X1440000Y13140000D01*
X19560000Y13140000D02*
X19315000Y13140000D01*
X19560000Y20860000D02*
X19315000Y20860000D01*
%TO.C,U8*%
X46377960Y27722040D02*
X47756819Y29100898D01*
X46377960Y27722040D02*
X44999102Y26343181D01*
X39222040Y34877960D02*
X40600898Y36256819D01*
X39222040Y34877960D02*
X36782521Y32438442D01*
%TO.C,R28*%
X42237258Y53777500D02*
X41762742Y53777500D01*
X42237258Y54822500D02*
X41762742Y54822500D01*
%TO.C,MARK2*%
G36*
X14583542Y45193625D02*
G01*
X14854453Y45670427D01*
X15068055Y45670427D01*
X15075732Y45660743D01*
X15098100Y45645911D01*
X15130378Y45629084D01*
X15131555Y45628532D01*
X15160990Y45612916D01*
X15191240Y45592439D01*
X15225465Y45564483D01*
X15266826Y45526429D01*
X15318483Y45475661D01*
X15329667Y45464418D01*
X15426478Y45359980D01*
X15519592Y45245114D01*
X15610481Y45117651D01*
X15700615Y44975420D01*
X15791467Y44816252D01*
X15867804Y44671042D01*
X15953159Y44498096D01*
X16026437Y44338123D01*
X16088974Y44187723D01*
X16142104Y44043493D01*
X16187165Y43902033D01*
X16225273Y43760825D01*
X16239089Y43705819D01*
X16251604Y43657743D01*
X16261761Y43620534D01*
X16268499Y43598130D01*
X16270173Y43593852D01*
X16280102Y43583871D01*
X16304115Y43562841D01*
X16339709Y43532862D01*
X16384379Y43496032D01*
X16435622Y43454449D01*
X16456792Y43437442D01*
X16520916Y43386642D01*
X16570740Y43348570D01*
X16607939Y43322072D01*
X16634191Y43305996D01*
X16651173Y43299188D01*
X16657875Y43299140D01*
X16678840Y43304804D01*
X16712589Y43313806D01*
X16747833Y43323145D01*
X16770326Y43328351D01*
X16795749Y43332475D01*
X16826709Y43335631D01*
X16865813Y43337933D01*
X16915667Y43339494D01*
X16978877Y43340427D01*
X17058052Y43340845D01*
X17155292Y43340863D01*
X17250183Y43340652D01*
X17326657Y43340198D01*
X17387465Y43339346D01*
X17435357Y43337943D01*
X17473081Y43335835D01*
X17503390Y43332866D01*
X17529031Y43328884D01*
X17552756Y43323733D01*
X17577315Y43317260D01*
X17577571Y43317189D01*
X17619691Y43306919D01*
X17652592Y43301642D01*
X17671299Y43302104D01*
X17672821Y43302890D01*
X17710294Y43332006D01*
X17754835Y43367228D01*
X17803630Y43406260D01*
X17853859Y43446803D01*
X17902708Y43486562D01*
X17947358Y43523241D01*
X17984993Y43554541D01*
X18012796Y43578168D01*
X18027950Y43591823D01*
X18029827Y43593957D01*
X18034611Y43608084D01*
X18043306Y43638853D01*
X18054853Y43682329D01*
X18068194Y43734579D01*
X18074727Y43760825D01*
X18076431Y43767136D01*
X18251986Y43767136D01*
X18253317Y43767298D01*
X18263751Y43775595D01*
X18289244Y43795941D01*
X18328327Y43827163D01*
X18379532Y43868085D01*
X18441391Y43917535D01*
X18512433Y43974338D01*
X18591191Y44037320D01*
X18676196Y44105306D01*
X18765979Y44177124D01*
X18769250Y44179741D01*
X18882870Y44270779D01*
X18981212Y44349978D01*
X19065654Y44418560D01*
X19137569Y44477754D01*
X19198333Y44528784D01*
X19249322Y44572876D01*
X19291910Y44611255D01*
X19327474Y44645147D01*
X19357389Y44675779D01*
X19383029Y44704374D01*
X19405770Y44732160D01*
X19426988Y44760362D01*
X19437866Y44775583D01*
X19476905Y44835480D01*
X19510982Y44896373D01*
X19538539Y44954634D01*
X19558022Y45006638D01*
X19567874Y45048758D01*
X19566892Y45076326D01*
X19559083Y45093841D01*
X19542964Y45125054D01*
X19520336Y45166831D01*
X19493000Y45216035D01*
X19462760Y45269533D01*
X19431415Y45324189D01*
X19400767Y45376867D01*
X19372619Y45424433D01*
X19348771Y45463751D01*
X19331026Y45491687D01*
X19321184Y45505105D01*
X19320083Y45505833D01*
X19307603Y45500334D01*
X19282813Y45485843D01*
X19250836Y45465375D01*
X19247481Y45463142D01*
X19206766Y45431903D01*
X19157135Y45387526D01*
X19102300Y45333865D01*
X19045969Y45274772D01*
X18991852Y45214098D01*
X18943658Y45155697D01*
X18915653Y45118538D01*
X18808096Y44959418D01*
X18701350Y44784232D01*
X18597996Y44598007D01*
X18500614Y44405770D01*
X18411787Y44212547D01*
X18334094Y44023366D01*
X18287202Y43894536D01*
X18271175Y43845849D01*
X18259388Y43806226D01*
X18252704Y43778908D01*
X18251986Y43767136D01*
X18076431Y43767136D01*
X18113090Y43902902D01*
X18158196Y44044368D01*
X18211381Y44188626D01*
X18273979Y44339075D01*
X18347327Y44499117D01*
X18432196Y44671042D01*
X18524742Y44845774D01*
X18615359Y45001784D01*
X18705520Y45141241D01*
X18796696Y45266315D01*
X18890357Y45379176D01*
X18970333Y45464418D01*
X19024292Y45517885D01*
X19067357Y45558142D01*
X19102690Y45587806D01*
X19133449Y45609497D01*
X19162795Y45625831D01*
X19168444Y45628532D01*
X19200968Y45645371D01*
X19223738Y45660320D01*
X19231975Y45670223D01*
X19231944Y45670427D01*
X19226363Y45681834D01*
X19211452Y45709564D01*
X19188361Y45751547D01*
X19158243Y45805715D01*
X19122246Y45870001D01*
X19081523Y45942337D01*
X19037223Y46020654D01*
X19028774Y46035552D01*
X18976831Y46127813D01*
X18928780Y46214850D01*
X18883036Y46299770D01*
X18838010Y46385683D01*
X18792115Y46475696D01*
X18743766Y46572917D01*
X18691375Y46680455D01*
X18633355Y46801417D01*
X18575168Y46924000D01*
X18526291Y47027444D01*
X18478680Y47128381D01*
X18433379Y47224588D01*
X18391429Y47313846D01*
X18353872Y47393933D01*
X18321750Y47462628D01*
X18296107Y47517710D01*
X18277983Y47556959D01*
X18272233Y47569583D01*
X18247031Y47624500D01*
X18219922Y47682134D01*
X18194907Y47734037D01*
X18182322Y47759399D01*
X18142592Y47838090D01*
X18123032Y47812316D01*
X18111697Y47794414D01*
X18092877Y47761416D01*
X18068655Y47717108D01*
X18041110Y47665276D01*
X18021609Y47627792D01*
X17993760Y47574351D01*
X17968604Y47527132D01*
X17947994Y47489529D01*
X17933779Y47464934D01*
X17928519Y47457159D01*
X17921083Y47445631D01*
X17904477Y47417607D01*
X17879840Y47375078D01*
X17848309Y47320034D01*
X17811023Y47254467D01*
X17769119Y47180367D01*
X17723737Y47099725D01*
X17700333Y47057996D01*
X17483375Y46670715D01*
X17423037Y46670358D01*
X17376263Y46673156D01*
X17325167Y46680674D01*
X17301751Y46685875D01*
X17241194Y46696402D01*
X17169323Y46700942D01*
X17095128Y46699497D01*
X17027598Y46692066D01*
X16998249Y46685875D01*
X16951234Y46676674D01*
X16900212Y46671127D01*
X16876963Y46670358D01*
X16816625Y46670715D01*
X16599667Y47057996D01*
X16552983Y47141139D01*
X16509214Y47218727D01*
X16469500Y47288767D01*
X16434978Y47349269D01*
X16406786Y47398243D01*
X16386062Y47433696D01*
X16373944Y47453639D01*
X16371481Y47457159D01*
X16363073Y47470176D01*
X16346925Y47498667D01*
X16324886Y47539238D01*
X16298810Y47588497D01*
X16278390Y47627792D01*
X16249777Y47682571D01*
X16223075Y47732392D01*
X16200367Y47773469D01*
X16183732Y47802015D01*
X16176968Y47812316D01*
X16157408Y47838090D01*
X16117678Y47759399D01*
X16095928Y47715194D01*
X16069628Y47660074D01*
X16042782Y47602489D01*
X16027767Y47569583D01*
X16013647Y47538775D01*
X15991504Y47491061D01*
X15962380Y47428661D01*
X15927318Y47353797D01*
X15887359Y47268690D01*
X15843545Y47175561D01*
X15796919Y47076631D01*
X15748524Y46974120D01*
X15724831Y46924000D01*
X15660407Y46788339D01*
X15603035Y46668892D01*
X15551130Y46562553D01*
X15503105Y46466211D01*
X15457372Y46376760D01*
X15412345Y46291092D01*
X15366437Y46206097D01*
X15318062Y46118669D01*
X15271226Y46035552D01*
X15226394Y45956359D01*
X15184926Y45882768D01*
X15147973Y45816846D01*
X15116687Y45760660D01*
X15092217Y45716280D01*
X15075714Y45685773D01*
X15068330Y45671206D01*
X15068055Y45670427D01*
X14854453Y45670427D01*
X14953359Y45844500D01*
X15016661Y45955944D01*
X15073160Y46055607D01*
X15123830Y46145396D01*
X15169642Y46227214D01*
X15211570Y46302969D01*
X15250588Y46374565D01*
X15287668Y46443908D01*
X15323783Y46512903D01*
X15359907Y46583456D01*
X15397012Y46657472D01*
X15436072Y46736856D01*
X15478059Y46823514D01*
X15523947Y46919352D01*
X15574709Y47026275D01*
X15631318Y47146188D01*
X15694747Y47280996D01*
X15765969Y47432606D01*
X15784139Y47471298D01*
X15828272Y47564775D01*
X15870672Y47653625D01*
X15910303Y47735747D01*
X15946132Y47809040D01*
X15977123Y47871402D01*
X16002243Y47920732D01*
X16020457Y47954929D01*
X16030329Y47971361D01*
X16061748Y48014083D01*
X16247953Y48014083D01*
X16284364Y47973781D01*
X16306629Y47945224D01*
X16333419Y47905180D01*
X16359821Y47861109D01*
X16366278Y47849427D01*
X16380577Y47823376D01*
X16404039Y47781072D01*
X16435441Y47724705D01*
X16473557Y47656465D01*
X16517164Y47578540D01*
X16565037Y47493122D01*
X16615952Y47402398D01*
X16668685Y47308560D01*
X16672175Y47302354D01*
X16932568Y46839333D01*
X17367432Y46839333D01*
X17627825Y47302354D01*
X17680634Y47396321D01*
X17731706Y47487315D01*
X17779816Y47573149D01*
X17823740Y47651631D01*
X17862254Y47720573D01*
X17894133Y47777785D01*
X17918153Y47821078D01*
X17933089Y47848261D01*
X17933722Y47849427D01*
X17959171Y47893305D01*
X17986341Y47935179D01*
X18010320Y47967591D01*
X18015635Y47973781D01*
X18052046Y48014083D01*
X18238252Y48014083D01*
X18269671Y47971361D01*
X18280485Y47953228D01*
X18299174Y47917995D01*
X18324702Y47867765D01*
X18356035Y47804637D01*
X18392139Y47730714D01*
X18431979Y47648097D01*
X18474521Y47558887D01*
X18515860Y47471298D01*
X18589077Y47315417D01*
X18654269Y47176790D01*
X18712409Y47053512D01*
X18764472Y46943676D01*
X18811430Y46845377D01*
X18854256Y46756711D01*
X18893923Y46675771D01*
X18931404Y46600653D01*
X18967673Y46529450D01*
X19003702Y46460258D01*
X19040465Y46391170D01*
X19078934Y46320282D01*
X19120083Y46245687D01*
X19164884Y46165482D01*
X19214312Y46077759D01*
X19269338Y45980614D01*
X19330936Y45872141D01*
X19346641Y45844500D01*
X19716458Y45193625D01*
X19719988Y45075648D01*
X19721068Y45020602D01*
X19719906Y44980002D01*
X19715687Y44947174D01*
X19707598Y44915445D01*
X19696433Y44882585D01*
X19650529Y44773811D01*
X19593644Y44674327D01*
X19522274Y44578573D01*
X19463016Y44512048D01*
X19446807Y44497020D01*
X19415108Y44469665D01*
X19368981Y44430849D01*
X19309488Y44381437D01*
X19237690Y44322296D01*
X19154650Y44254292D01*
X19061430Y44178289D01*
X18959092Y44095155D01*
X18848698Y44005754D01*
X18731309Y43910954D01*
X18607989Y43811618D01*
X18479799Y43708614D01*
X18347801Y43602807D01*
X18343340Y43599236D01*
X17287722Y42754167D01*
X17147423Y42754956D01*
X17007125Y42755745D01*
X15966371Y43589685D01*
X15835376Y43694728D01*
X15708222Y43796845D01*
X15585970Y43895174D01*
X15469684Y43988856D01*
X15360424Y44077029D01*
X15259252Y44158834D01*
X15167231Y44233410D01*
X15085422Y44299896D01*
X15014888Y44357432D01*
X14956689Y44405156D01*
X14911889Y44442209D01*
X14881549Y44467730D01*
X14867055Y44480542D01*
X14823600Y44526465D01*
X14776863Y44581961D01*
X14731243Y44641257D01*
X14691140Y44698583D01*
X14660956Y44748165D01*
X14656372Y44756889D01*
X14639128Y44794025D01*
X14619621Y44840631D01*
X14603475Y44882839D01*
X14591277Y44919143D01*
X14583665Y44950651D01*
X14579829Y44984031D01*
X14578958Y45025948D01*
X14579332Y45043601D01*
X14731930Y45043601D01*
X14743404Y44998350D01*
X14765794Y44943575D01*
X14797365Y44882277D01*
X14836383Y44817456D01*
X14881111Y44752114D01*
X14929816Y44689251D01*
X14980762Y44631869D01*
X15002934Y44609620D01*
X15017610Y44596728D01*
X15046416Y44572557D01*
X15087658Y44538472D01*
X15139642Y44495840D01*
X15200675Y44446026D01*
X15269063Y44390397D01*
X15343112Y44330319D01*
X15421128Y44267158D01*
X15501418Y44202280D01*
X15582289Y44137051D01*
X15662045Y44072837D01*
X15738995Y44011004D01*
X15811443Y43952919D01*
X15877696Y43899946D01*
X15936061Y43853454D01*
X15984844Y43814807D01*
X16022351Y43785371D01*
X16046889Y43766514D01*
X16056763Y43759600D01*
X16056824Y43759591D01*
X16054406Y43768985D01*
X16046249Y43794753D01*
X16033536Y43833270D01*
X16017453Y43880906D01*
X16012355Y43895829D01*
X15944510Y44078016D01*
X15863700Y44267960D01*
X15772511Y44460629D01*
X15673527Y44650988D01*
X15569334Y44834005D01*
X15462518Y45004644D01*
X15384346Y45118538D01*
X15342445Y45173097D01*
X15292045Y45232602D01*
X15236856Y45293201D01*
X15180589Y45351042D01*
X15126952Y45402271D01*
X15079656Y45443036D01*
X15052518Y45463142D01*
X15020110Y45484038D01*
X14994381Y45499253D01*
X14980457Y45505775D01*
X14979916Y45505833D01*
X14972635Y45497087D01*
X14956940Y45472936D01*
X14934634Y45436516D01*
X14907518Y45390963D01*
X14877395Y45339412D01*
X14846064Y45284997D01*
X14815329Y45230854D01*
X14786990Y45180119D01*
X14762849Y45135925D01*
X14744708Y45101409D01*
X14734367Y45079705D01*
X14733108Y45076326D01*
X14731930Y45043601D01*
X14579332Y45043601D01*
X14580012Y45075648D01*
X14583542Y45193625D01*
G37*
D12*
X14583542Y45193625D02*
X14854453Y45670427D01*
X15068055Y45670427D01*
X15075732Y45660743D01*
X15098100Y45645911D01*
X15130378Y45629084D01*
X15131555Y45628532D01*
X15160990Y45612916D01*
X15191240Y45592439D01*
X15225465Y45564483D01*
X15266826Y45526429D01*
X15318483Y45475661D01*
X15329667Y45464418D01*
X15426478Y45359980D01*
X15519592Y45245114D01*
X15610481Y45117651D01*
X15700615Y44975420D01*
X15791467Y44816252D01*
X15867804Y44671042D01*
X15953159Y44498096D01*
X16026437Y44338123D01*
X16088974Y44187723D01*
X16142104Y44043493D01*
X16187165Y43902033D01*
X16225273Y43760825D01*
X16239089Y43705819D01*
X16251604Y43657743D01*
X16261761Y43620534D01*
X16268499Y43598130D01*
X16270173Y43593852D01*
X16280102Y43583871D01*
X16304115Y43562841D01*
X16339709Y43532862D01*
X16384379Y43496032D01*
X16435622Y43454449D01*
X16456792Y43437442D01*
X16520916Y43386642D01*
X16570740Y43348570D01*
X16607939Y43322072D01*
X16634191Y43305996D01*
X16651173Y43299188D01*
X16657875Y43299140D01*
X16678840Y43304804D01*
X16712589Y43313806D01*
X16747833Y43323145D01*
X16770326Y43328351D01*
X16795749Y43332475D01*
X16826709Y43335631D01*
X16865813Y43337933D01*
X16915667Y43339494D01*
X16978877Y43340427D01*
X17058052Y43340845D01*
X17155292Y43340863D01*
X17250183Y43340652D01*
X17326657Y43340198D01*
X17387465Y43339346D01*
X17435357Y43337943D01*
X17473081Y43335835D01*
X17503390Y43332866D01*
X17529031Y43328884D01*
X17552756Y43323733D01*
X17577315Y43317260D01*
X17577571Y43317189D01*
X17619691Y43306919D01*
X17652592Y43301642D01*
X17671299Y43302104D01*
X17672821Y43302890D01*
X17710294Y43332006D01*
X17754835Y43367228D01*
X17803630Y43406260D01*
X17853859Y43446803D01*
X17902708Y43486562D01*
X17947358Y43523241D01*
X17984993Y43554541D01*
X18012796Y43578168D01*
X18027950Y43591823D01*
X18029827Y43593957D01*
X18034611Y43608084D01*
X18043306Y43638853D01*
X18054853Y43682329D01*
X18068194Y43734579D01*
X18074727Y43760825D01*
X18076431Y43767136D01*
X18251986Y43767136D01*
X18253317Y43767298D01*
X18263751Y43775595D01*
X18289244Y43795941D01*
X18328327Y43827163D01*
X18379532Y43868085D01*
X18441391Y43917535D01*
X18512433Y43974338D01*
X18591191Y44037320D01*
X18676196Y44105306D01*
X18765979Y44177124D01*
X18769250Y44179741D01*
X18882870Y44270779D01*
X18981212Y44349978D01*
X19065654Y44418560D01*
X19137569Y44477754D01*
X19198333Y44528784D01*
X19249322Y44572876D01*
X19291910Y44611255D01*
X19327474Y44645147D01*
X19357389Y44675779D01*
X19383029Y44704374D01*
X19405770Y44732160D01*
X19426988Y44760362D01*
X19437866Y44775583D01*
X19476905Y44835480D01*
X19510982Y44896373D01*
X19538539Y44954634D01*
X19558022Y45006638D01*
X19567874Y45048758D01*
X19566892Y45076326D01*
X19559083Y45093841D01*
X19542964Y45125054D01*
X19520336Y45166831D01*
X19493000Y45216035D01*
X19462760Y45269533D01*
X19431415Y45324189D01*
X19400767Y45376867D01*
X19372619Y45424433D01*
X19348771Y45463751D01*
X19331026Y45491687D01*
X19321184Y45505105D01*
X19320083Y45505833D01*
X19307603Y45500334D01*
X19282813Y45485843D01*
X19250836Y45465375D01*
X19247481Y45463142D01*
X19206766Y45431903D01*
X19157135Y45387526D01*
X19102300Y45333865D01*
X19045969Y45274772D01*
X18991852Y45214098D01*
X18943658Y45155697D01*
X18915653Y45118538D01*
X18808096Y44959418D01*
X18701350Y44784232D01*
X18597996Y44598007D01*
X18500614Y44405770D01*
X18411787Y44212547D01*
X18334094Y44023366D01*
X18287202Y43894536D01*
X18271175Y43845849D01*
X18259388Y43806226D01*
X18252704Y43778908D01*
X18251986Y43767136D01*
X18076431Y43767136D01*
X18113090Y43902902D01*
X18158196Y44044368D01*
X18211381Y44188626D01*
X18273979Y44339075D01*
X18347327Y44499117D01*
X18432196Y44671042D01*
X18524742Y44845774D01*
X18615359Y45001784D01*
X18705520Y45141241D01*
X18796696Y45266315D01*
X18890357Y45379176D01*
X18970333Y45464418D01*
X19024292Y45517885D01*
X19067357Y45558142D01*
X19102690Y45587806D01*
X19133449Y45609497D01*
X19162795Y45625831D01*
X19168444Y45628532D01*
X19200968Y45645371D01*
X19223738Y45660320D01*
X19231975Y45670223D01*
X19231944Y45670427D01*
X19226363Y45681834D01*
X19211452Y45709564D01*
X19188361Y45751547D01*
X19158243Y45805715D01*
X19122246Y45870001D01*
X19081523Y45942337D01*
X19037223Y46020654D01*
X19028774Y46035552D01*
X18976831Y46127813D01*
X18928780Y46214850D01*
X18883036Y46299770D01*
X18838010Y46385683D01*
X18792115Y46475696D01*
X18743766Y46572917D01*
X18691375Y46680455D01*
X18633355Y46801417D01*
X18575168Y46924000D01*
X18526291Y47027444D01*
X18478680Y47128381D01*
X18433379Y47224588D01*
X18391429Y47313846D01*
X18353872Y47393933D01*
X18321750Y47462628D01*
X18296107Y47517710D01*
X18277983Y47556959D01*
X18272233Y47569583D01*
X18247031Y47624500D01*
X18219922Y47682134D01*
X18194907Y47734037D01*
X18182322Y47759399D01*
X18142592Y47838090D01*
X18123032Y47812316D01*
X18111697Y47794414D01*
X18092877Y47761416D01*
X18068655Y47717108D01*
X18041110Y47665276D01*
X18021609Y47627792D01*
X17993760Y47574351D01*
X17968604Y47527132D01*
X17947994Y47489529D01*
X17933779Y47464934D01*
X17928519Y47457159D01*
X17921083Y47445631D01*
X17904477Y47417607D01*
X17879840Y47375078D01*
X17848309Y47320034D01*
X17811023Y47254467D01*
X17769119Y47180367D01*
X17723737Y47099725D01*
X17700333Y47057996D01*
X17483375Y46670715D01*
X17423037Y46670358D01*
X17376263Y46673156D01*
X17325167Y46680674D01*
X17301751Y46685875D01*
X17241194Y46696402D01*
X17169323Y46700942D01*
X17095128Y46699497D01*
X17027598Y46692066D01*
X16998249Y46685875D01*
X16951234Y46676674D01*
X16900212Y46671127D01*
X16876963Y46670358D01*
X16816625Y46670715D01*
X16599667Y47057996D01*
X16552983Y47141139D01*
X16509214Y47218727D01*
X16469500Y47288767D01*
X16434978Y47349269D01*
X16406786Y47398243D01*
X16386062Y47433696D01*
X16373944Y47453639D01*
X16371481Y47457159D01*
X16363073Y47470176D01*
X16346925Y47498667D01*
X16324886Y47539238D01*
X16298810Y47588497D01*
X16278390Y47627792D01*
X16249777Y47682571D01*
X16223075Y47732392D01*
X16200367Y47773469D01*
X16183732Y47802015D01*
X16176968Y47812316D01*
X16157408Y47838090D01*
X16117678Y47759399D01*
X16095928Y47715194D01*
X16069628Y47660074D01*
X16042782Y47602489D01*
X16027767Y47569583D01*
X16013647Y47538775D01*
X15991504Y47491061D01*
X15962380Y47428661D01*
X15927318Y47353797D01*
X15887359Y47268690D01*
X15843545Y47175561D01*
X15796919Y47076631D01*
X15748524Y46974120D01*
X15724831Y46924000D01*
X15660407Y46788339D01*
X15603035Y46668892D01*
X15551130Y46562553D01*
X15503105Y46466211D01*
X15457372Y46376760D01*
X15412345Y46291092D01*
X15366437Y46206097D01*
X15318062Y46118669D01*
X15271226Y46035552D01*
X15226394Y45956359D01*
X15184926Y45882768D01*
X15147973Y45816846D01*
X15116687Y45760660D01*
X15092217Y45716280D01*
X15075714Y45685773D01*
X15068330Y45671206D01*
X15068055Y45670427D01*
X14854453Y45670427D01*
X14953359Y45844500D01*
X15016661Y45955944D01*
X15073160Y46055607D01*
X15123830Y46145396D01*
X15169642Y46227214D01*
X15211570Y46302969D01*
X15250588Y46374565D01*
X15287668Y46443908D01*
X15323783Y46512903D01*
X15359907Y46583456D01*
X15397012Y46657472D01*
X15436072Y46736856D01*
X15478059Y46823514D01*
X15523947Y46919352D01*
X15574709Y47026275D01*
X15631318Y47146188D01*
X15694747Y47280996D01*
X15765969Y47432606D01*
X15784139Y47471298D01*
X15828272Y47564775D01*
X15870672Y47653625D01*
X15910303Y47735747D01*
X15946132Y47809040D01*
X15977123Y47871402D01*
X16002243Y47920732D01*
X16020457Y47954929D01*
X16030329Y47971361D01*
X16061748Y48014083D01*
X16247953Y48014083D01*
X16284364Y47973781D01*
X16306629Y47945224D01*
X16333419Y47905180D01*
X16359821Y47861109D01*
X16366278Y47849427D01*
X16380577Y47823376D01*
X16404039Y47781072D01*
X16435441Y47724705D01*
X16473557Y47656465D01*
X16517164Y47578540D01*
X16565037Y47493122D01*
X16615952Y47402398D01*
X16668685Y47308560D01*
X16672175Y47302354D01*
X16932568Y46839333D01*
X17367432Y46839333D01*
X17627825Y47302354D01*
X17680634Y47396321D01*
X17731706Y47487315D01*
X17779816Y47573149D01*
X17823740Y47651631D01*
X17862254Y47720573D01*
X17894133Y47777785D01*
X17918153Y47821078D01*
X17933089Y47848261D01*
X17933722Y47849427D01*
X17959171Y47893305D01*
X17986341Y47935179D01*
X18010320Y47967591D01*
X18015635Y47973781D01*
X18052046Y48014083D01*
X18238252Y48014083D01*
X18269671Y47971361D01*
X18280485Y47953228D01*
X18299174Y47917995D01*
X18324702Y47867765D01*
X18356035Y47804637D01*
X18392139Y47730714D01*
X18431979Y47648097D01*
X18474521Y47558887D01*
X18515860Y47471298D01*
X18589077Y47315417D01*
X18654269Y47176790D01*
X18712409Y47053512D01*
X18764472Y46943676D01*
X18811430Y46845377D01*
X18854256Y46756711D01*
X18893923Y46675771D01*
X18931404Y46600653D01*
X18967673Y46529450D01*
X19003702Y46460258D01*
X19040465Y46391170D01*
X19078934Y46320282D01*
X19120083Y46245687D01*
X19164884Y46165482D01*
X19214312Y46077759D01*
X19269338Y45980614D01*
X19330936Y45872141D01*
X19346641Y45844500D01*
X19716458Y45193625D01*
X19719988Y45075648D01*
X19721068Y45020602D01*
X19719906Y44980002D01*
X19715687Y44947174D01*
X19707598Y44915445D01*
X19696433Y44882585D01*
X19650529Y44773811D01*
X19593644Y44674327D01*
X19522274Y44578573D01*
X19463016Y44512048D01*
X19446807Y44497020D01*
X19415108Y44469665D01*
X19368981Y44430849D01*
X19309488Y44381437D01*
X19237690Y44322296D01*
X19154650Y44254292D01*
X19061430Y44178289D01*
X18959092Y44095155D01*
X18848698Y44005754D01*
X18731309Y43910954D01*
X18607989Y43811618D01*
X18479799Y43708614D01*
X18347801Y43602807D01*
X18343340Y43599236D01*
X17287722Y42754167D01*
X17147423Y42754956D01*
X17007125Y42755745D01*
X15966371Y43589685D01*
X15835376Y43694728D01*
X15708222Y43796845D01*
X15585970Y43895174D01*
X15469684Y43988856D01*
X15360424Y44077029D01*
X15259252Y44158834D01*
X15167231Y44233410D01*
X15085422Y44299896D01*
X15014888Y44357432D01*
X14956689Y44405156D01*
X14911889Y44442209D01*
X14881549Y44467730D01*
X14867055Y44480542D01*
X14823600Y44526465D01*
X14776863Y44581961D01*
X14731243Y44641257D01*
X14691140Y44698583D01*
X14660956Y44748165D01*
X14656372Y44756889D01*
X14639128Y44794025D01*
X14619621Y44840631D01*
X14603475Y44882839D01*
X14591277Y44919143D01*
X14583665Y44950651D01*
X14579829Y44984031D01*
X14578958Y45025948D01*
X14579332Y45043601D01*
X14731930Y45043601D01*
X14743404Y44998350D01*
X14765794Y44943575D01*
X14797365Y44882277D01*
X14836383Y44817456D01*
X14881111Y44752114D01*
X14929816Y44689251D01*
X14980762Y44631869D01*
X15002934Y44609620D01*
X15017610Y44596728D01*
X15046416Y44572557D01*
X15087658Y44538472D01*
X15139642Y44495840D01*
X15200675Y44446026D01*
X15269063Y44390397D01*
X15343112Y44330319D01*
X15421128Y44267158D01*
X15501418Y44202280D01*
X15582289Y44137051D01*
X15662045Y44072837D01*
X15738995Y44011004D01*
X15811443Y43952919D01*
X15877696Y43899946D01*
X15936061Y43853454D01*
X15984844Y43814807D01*
X16022351Y43785371D01*
X16046889Y43766514D01*
X16056763Y43759600D01*
X16056824Y43759591D01*
X16054406Y43768985D01*
X16046249Y43794753D01*
X16033536Y43833270D01*
X16017453Y43880906D01*
X16012355Y43895829D01*
X15944510Y44078016D01*
X15863700Y44267960D01*
X15772511Y44460629D01*
X15673527Y44650988D01*
X15569334Y44834005D01*
X15462518Y45004644D01*
X15384346Y45118538D01*
X15342445Y45173097D01*
X15292045Y45232602D01*
X15236856Y45293201D01*
X15180589Y45351042D01*
X15126952Y45402271D01*
X15079656Y45443036D01*
X15052518Y45463142D01*
X15020110Y45484038D01*
X14994381Y45499253D01*
X14980457Y45505775D01*
X14979916Y45505833D01*
X14972635Y45497087D01*
X14956940Y45472936D01*
X14934634Y45436516D01*
X14907518Y45390963D01*
X14877395Y45339412D01*
X14846064Y45284997D01*
X14815329Y45230854D01*
X14786990Y45180119D01*
X14762849Y45135925D01*
X14744708Y45101409D01*
X14734367Y45079705D01*
X14733108Y45076326D01*
X14731930Y45043601D01*
X14579332Y45043601D01*
X14580012Y45075648D01*
X14583542Y45193625D01*
D11*
%TO.C,R11*%
X37422500Y42937258D02*
X37422500Y42462742D01*
X36377500Y42937258D02*
X36377500Y42462742D01*
%TO.C,R17*%
X29922500Y42937258D02*
X29922500Y42462742D01*
X28877500Y42937258D02*
X28877500Y42462742D01*
%TO.C,R26*%
X42237258Y56777500D02*
X41762742Y56777500D01*
X42237258Y57822500D02*
X41762742Y57822500D01*
%TO.C,R3*%
X16762742Y57877500D02*
X17237258Y57877500D01*
X16762742Y58922500D02*
X17237258Y58922500D01*
%TO.C,R14*%
X34422500Y42937258D02*
X34422500Y42462742D01*
X33377500Y42937258D02*
X33377500Y42462742D01*
%TO.C,C6*%
X34190773Y29987978D02*
X33991962Y30186789D01*
X34912022Y30709227D02*
X34713211Y30908038D01*
%TO.C,R15*%
X47877500Y38262258D02*
X47877500Y37787742D01*
X48922500Y38262258D02*
X48922500Y37787742D01*
%TO.C,R1*%
X1522500Y41737258D02*
X1522500Y41262742D01*
X477500Y41737258D02*
X477500Y41262742D01*
%TO.C,C4*%
X190000Y34859420D02*
X190000Y35140580D01*
X1210000Y34859420D02*
X1210000Y35140580D01*
%TO.C,C2*%
X9738748Y49765000D02*
X10261252Y49765000D01*
X9738748Y51235000D02*
X10261252Y51235000D01*
%TO.C,D3*%
X18515000Y60735000D02*
X18515000Y59265000D01*
X20800000Y60735000D02*
X18515000Y60735000D01*
X18515000Y59265000D02*
X20800000Y59265000D01*
%TO.C,R23*%
X46937258Y44238251D02*
X46462742Y44238251D01*
X46937258Y43193251D02*
X46462742Y43193251D01*
%TO.C,R9*%
X39387742Y51777500D02*
X39862258Y51777500D01*
X39387742Y52822500D02*
X39862258Y52822500D01*
%TO.C,R4*%
X19762742Y57877500D02*
X20237258Y57877500D01*
X19762742Y58922500D02*
X20237258Y58922500D01*
%TO.C,U6*%
X45981011Y12519168D02*
X47359870Y13898026D01*
X38825091Y19675088D02*
X40203949Y21053947D01*
X45981011Y12519168D02*
X44602153Y11140309D01*
X38825091Y19675088D02*
X36385572Y17235570D01*
%TO.C,R19*%
X31422500Y42937258D02*
X31422500Y42462742D01*
X30377500Y42937258D02*
X30377500Y42462742D01*
%TO.C,R10*%
X32922500Y42937258D02*
X32922500Y42462742D01*
X31877500Y42937258D02*
X31877500Y42462742D01*
%TO.C,J1*%
X26345000Y63100000D02*
X26345000Y69100000D01*
X30235000Y60440000D02*
X30235000Y63100000D01*
X31125000Y60042929D02*
X31125000Y60440000D01*
X37915000Y60440000D02*
X37915000Y63100000D01*
X26045000Y69100000D02*
X26805000Y69100000D01*
X36205000Y60042929D02*
X36205000Y60440000D01*
X31125000Y69100000D02*
X31885000Y69100000D01*
X36965000Y69100000D02*
X36965000Y63100000D01*
X26705000Y63100000D02*
X26705000Y69100000D01*
X25095000Y60440000D02*
X37915000Y60440000D01*
X25095000Y63100000D02*
X25095000Y60440000D01*
X28585000Y69100000D02*
X29345000Y69100000D01*
X29345000Y60042929D02*
X29345000Y60440000D01*
X26805000Y69100000D02*
X26805000Y63100000D01*
X32775000Y60440000D02*
X32775000Y63100000D01*
X26045000Y63100000D02*
X26045000Y69100000D01*
X28585000Y63100000D02*
X28585000Y69100000D01*
X28585000Y60042929D02*
X28585000Y60440000D01*
X36205000Y63100000D02*
X36205000Y69100000D01*
X37915000Y63100000D02*
X25095000Y63100000D01*
X27695000Y60440000D02*
X27695000Y63100000D01*
X31125000Y63100000D02*
X31125000Y69100000D01*
X35315000Y60440000D02*
X35315000Y63100000D01*
X26425000Y57730000D02*
X25155000Y57730000D01*
X33665000Y63100000D02*
X33665000Y69100000D01*
X26045000Y60110000D02*
X26045000Y60440000D01*
X36965000Y60042929D02*
X36965000Y60440000D01*
X25155000Y57730000D02*
X25155000Y59000000D01*
X26225000Y63100000D02*
X26225000Y69100000D01*
X33665000Y60042929D02*
X33665000Y60440000D01*
X36205000Y69100000D02*
X36965000Y69100000D01*
X26105000Y63100000D02*
X26105000Y69100000D01*
X34425000Y69100000D02*
X34425000Y63100000D01*
X26805000Y60110000D02*
X26805000Y60440000D01*
X33665000Y69100000D02*
X34425000Y69100000D01*
X34425000Y60042929D02*
X34425000Y60440000D01*
X26585000Y63100000D02*
X26585000Y69100000D01*
X31885000Y69100000D02*
X31885000Y63100000D01*
X29345000Y69100000D02*
X29345000Y63100000D01*
X31885000Y60042929D02*
X31885000Y60440000D01*
X26465000Y63100000D02*
X26465000Y69100000D01*
%TO.C,D2*%
X17800000Y60735000D02*
X15515000Y60735000D01*
X15515000Y59265000D02*
X17800000Y59265000D01*
X15515000Y60735000D02*
X15515000Y59265000D01*
%TO.C,R25*%
X14977500Y54962742D02*
X14977500Y55437258D01*
X16022500Y54962742D02*
X16022500Y55437258D01*
%TO.C,U3*%
X20440000Y24000000D02*
X20440000Y24800000D01*
X20440000Y24000000D02*
X20440000Y22200000D01*
X23560000Y24000000D02*
X23560000Y23200000D01*
X23560000Y24000000D02*
X23560000Y24800000D01*
%TO.C,R22*%
X39937258Y43738251D02*
X39462742Y43738251D01*
X39937258Y42693251D02*
X39462742Y42693251D01*
%TO.C,D1*%
X14800000Y60735000D02*
X12515000Y60735000D01*
X12515000Y59265000D02*
X14800000Y59265000D01*
X12515000Y60735000D02*
X12515000Y59265000D01*
%TO.C,R21*%
X39462742Y44193251D02*
X39937258Y44193251D01*
X39462742Y45238251D02*
X39937258Y45238251D01*
%TO.C,Q3*%
X43200000Y42155751D02*
X42550000Y42155751D01*
X43200000Y45275751D02*
X41525000Y45275751D01*
X43200000Y45275751D02*
X43850000Y45275751D01*
X43200000Y42155751D02*
X43850000Y42155751D01*
%TO.C,D7*%
X29200000Y49150000D02*
X31750000Y49150000D01*
X29200000Y50850000D02*
X29200000Y49150000D01*
X29200000Y50850000D02*
X31750000Y50850000D01*
%TO.C,C9*%
X33465000Y47261252D02*
X33465000Y46738748D01*
X34935000Y47261252D02*
X34935000Y46738748D01*
%TO.C,R16*%
X39462742Y47693251D02*
X39937258Y47693251D01*
X39462742Y48738251D02*
X39937258Y48738251D01*
%TO.C,C1*%
X490000Y38640580D02*
X490000Y38359420D01*
X1510000Y38640580D02*
X1510000Y38359420D01*
%TO.C,R5*%
X22762742Y58922500D02*
X23237258Y58922500D01*
X22762742Y57877500D02*
X23237258Y57877500D01*
%TO.C,Q1*%
X43187500Y52875751D02*
X41512500Y52875751D01*
X43187500Y49755751D02*
X43837500Y49755751D01*
X43187500Y49755751D02*
X42537500Y49755751D01*
X43187500Y52875751D02*
X43837500Y52875751D01*
%TO.C,C5*%
X26738781Y37439970D02*
X26539970Y37638781D01*
X27460030Y38161219D02*
X27261219Y38360030D01*
%TO.C,U2*%
X19560000Y29500000D02*
X19560000Y33360000D01*
X19560000Y25640000D02*
X19315000Y25640000D01*
X19560000Y33360000D02*
X19315000Y33360000D01*
X1685000Y25640000D02*
X1685000Y23825000D01*
X1440000Y29500000D02*
X1440000Y33360000D01*
X1440000Y33360000D02*
X1685000Y33360000D01*
X1440000Y25640000D02*
X1685000Y25640000D01*
X19560000Y29500000D02*
X19560000Y25640000D01*
X1440000Y29500000D02*
X1440000Y25640000D01*
%TO.C,R6*%
X24477500Y24137258D02*
X24477500Y23662742D01*
X25522500Y24137258D02*
X25522500Y23662742D01*
%TO.C,R24*%
X14522500Y54962742D02*
X14522500Y55437258D01*
X13477500Y54962742D02*
X13477500Y55437258D01*
%TO.C,C8*%
X26461252Y45265000D02*
X25938748Y45265000D01*
X26461252Y46735000D02*
X25938748Y46735000D01*
%TO.C,C10*%
X2859420Y50510000D02*
X3140580Y50510000D01*
X2859420Y49490000D02*
X3140580Y49490000D01*
%TO.C,Q2*%
X43200000Y45655751D02*
X42550000Y45655751D01*
X43200000Y48775751D02*
X41525000Y48775751D01*
X43200000Y45655751D02*
X43850000Y45655751D01*
X43200000Y48775751D02*
X43850000Y48775751D01*
%TO.C,U5*%
X31422040Y27077960D02*
X32800898Y28456819D01*
X38577960Y19922040D02*
X37199102Y18543181D01*
X31422040Y27077960D02*
X28982521Y24638442D01*
X38577960Y19922040D02*
X39956819Y21300898D01*
%TO.C,J2*%
X33665000Y57502929D02*
X33665000Y57900000D01*
X28765000Y60560000D02*
X28765000Y66560000D01*
X28885000Y60560000D02*
X28885000Y66560000D01*
X31885000Y57502929D02*
X31885000Y57900000D01*
X32775000Y57900000D02*
X32775000Y60560000D01*
X29345000Y57570000D02*
X29345000Y57900000D01*
X33665000Y66560000D02*
X34425000Y66560000D01*
X34425000Y66560000D02*
X34425000Y60560000D01*
X34425000Y57502929D02*
X34425000Y57900000D01*
X30235000Y57900000D02*
X30235000Y60560000D01*
X31885000Y66560000D02*
X31885000Y60560000D01*
X37915000Y60560000D02*
X27635000Y60560000D01*
X28585000Y60560000D02*
X28585000Y66560000D01*
X31125000Y57502929D02*
X31125000Y57900000D01*
X37915000Y57900000D02*
X37915000Y60560000D01*
X27635000Y60560000D02*
X27635000Y57900000D01*
X36205000Y60560000D02*
X36205000Y66560000D01*
X36965000Y57502929D02*
X36965000Y57900000D01*
X28645000Y60560000D02*
X28645000Y66560000D01*
X27635000Y57900000D02*
X37915000Y57900000D01*
X29005000Y60560000D02*
X29005000Y66560000D01*
X29125000Y60560000D02*
X29125000Y66560000D01*
X28965000Y55190000D02*
X27695000Y55190000D01*
X28585000Y57570000D02*
X28585000Y57900000D01*
X33665000Y60560000D02*
X33665000Y66560000D01*
X36205000Y66560000D02*
X36965000Y66560000D01*
X28585000Y66560000D02*
X29345000Y66560000D01*
X31125000Y60560000D02*
X31125000Y66560000D01*
X35315000Y57900000D02*
X35315000Y60560000D01*
X27695000Y55190000D02*
X27695000Y56460000D01*
X31125000Y66560000D02*
X31885000Y66560000D01*
X36205000Y57502929D02*
X36205000Y57900000D01*
X29345000Y66560000D02*
X29345000Y60560000D01*
X36965000Y66560000D02*
X36965000Y60560000D01*
X29245000Y60560000D02*
X29245000Y66560000D01*
%TO.C,R27*%
X42237258Y56322500D02*
X41762742Y56322500D01*
X42237258Y55277500D02*
X41762742Y55277500D01*
%TO.C,C11*%
X13761252Y51235000D02*
X13238748Y51235000D01*
X13761252Y49765000D02*
X13238748Y49765000D01*
%TO.C,C7*%
X41490773Y22487978D02*
X41291962Y22686789D01*
X42212022Y23209227D02*
X42013211Y23408038D01*
%TO.C,D6*%
X27700000Y47150000D02*
X25150000Y47150000D01*
X27700000Y48850000D02*
X25150000Y48850000D01*
X27700000Y47150000D02*
X27700000Y48850000D01*
%TO.C,R20*%
X46937258Y46693251D02*
X46462742Y46693251D01*
X46937258Y47738251D02*
X46462742Y47738251D01*
%TO.C,R7*%
X39387742Y50277500D02*
X39862258Y50277500D01*
X39387742Y51322500D02*
X39862258Y51322500D01*
%TO.C,C3*%
X1210000Y22259420D02*
X1210000Y22540580D01*
X190000Y22259420D02*
X190000Y22540580D01*
%TO.C,D5*%
X27700000Y50850000D02*
X25150000Y50850000D01*
X27700000Y49150000D02*
X27700000Y50850000D01*
X27700000Y49150000D02*
X25150000Y49150000D01*
D10*
%TO.C,U7*%
X2175000Y41125000D02*
X2175000Y46875000D01*
X12825000Y41125000D02*
X12175000Y41125000D01*
X2750000Y41125000D02*
X2750000Y39525000D01*
X2175000Y41125000D02*
X2750000Y41125000D01*
X2175000Y46875000D02*
X2825000Y46875000D01*
X12825000Y46875000D02*
X12175000Y46875000D01*
X12825000Y41125000D02*
X12825000Y46875000D01*
D11*
%TO.C,R13*%
X47877500Y34837742D02*
X47877500Y35312258D01*
X48922500Y34837742D02*
X48922500Y35312258D01*
%TO.C,R12*%
X35922500Y42937258D02*
X35922500Y42462742D01*
X34877500Y42937258D02*
X34877500Y42462742D01*
%TO.C,U9*%
X30700000Y48560000D02*
X31500000Y48560000D01*
X30700000Y45440000D02*
X31500000Y45440000D01*
X30700000Y48560000D02*
X28900000Y48560000D01*
X30700000Y45440000D02*
X29900000Y45440000D01*
%TO.C,R2*%
X13762742Y58922500D02*
X14237258Y58922500D01*
X13762742Y57877500D02*
X14237258Y57877500D01*
%TO.C,R8*%
X25977500Y24137258D02*
X25977500Y23662742D01*
X27022500Y24137258D02*
X27022500Y23662742D01*
%TO.C,U10*%
X21900000Y29360000D02*
X21100000Y29360000D01*
X21900000Y26240000D02*
X23700000Y26240000D01*
X21900000Y29360000D02*
X22700000Y29360000D01*
X21900000Y26240000D02*
X21100000Y26240000D01*
%TO.C,D4*%
X21515000Y59265000D02*
X23800000Y59265000D01*
X21515000Y60735000D02*
X21515000Y59265000D01*
X23800000Y60735000D02*
X21515000Y60735000D01*
%TO.C,U4*%
X31077960Y27422040D02*
X32456819Y28800898D01*
X23922040Y34577960D02*
X25300898Y35956819D01*
X31077960Y27422040D02*
X29699102Y26043181D01*
X23922040Y34577960D02*
X21482521Y32138442D01*
%TO.C,R18*%
X39937258Y47238251D02*
X39462742Y47238251D01*
X39937258Y46193251D02*
X39462742Y46193251D01*
%TD*%
M02*
