%TF.GenerationSoftware,KiCad,Pcbnew,6.0.7-5.fc37*%
%TF.CreationDate,2022-11-14T12:33:56+01:00*%
%TF.ProjectId,GameboyTestCartridge,47616d65-626f-4795-9465-737443617274,rev?*%
%TF.SameCoordinates,PX9b72ec0PY876bf80*%
%TF.FileFunction,Soldermask,Top*%
%TF.FilePolarity,Negative*%
%FSLAX46Y46*%
G04 Gerber Fmt 4.6, Leading zero omitted, Abs format (unit mm)*
G04 Created by KiCad (PCBNEW 6.0.7-5.fc37) date 2022-11-14 12:33:56*
%MOMM*%
%LPD*%
G01*
G04 APERTURE LIST*
G04 Aperture macros list*
%AMRoundRect*
0 Rectangle with rounded corners*
0 $1 Rounding radius*
0 $2 $3 $4 $5 $6 $7 $8 $9 X,Y pos of 4 corners*
0 Add a 4 corners polygon primitive as box body*
4,1,4,$2,$3,$4,$5,$6,$7,$8,$9,$2,$3,0*
0 Add four circle primitives for the rounded corners*
1,1,$1+$1,$2,$3*
1,1,$1+$1,$4,$5*
1,1,$1+$1,$6,$7*
1,1,$1+$1,$8,$9*
0 Add four rect primitives between the rounded corners*
20,1,$1+$1,$2,$3,$4,$5,0*
20,1,$1+$1,$4,$5,$6,$7,0*
20,1,$1+$1,$6,$7,$8,$9,0*
20,1,$1+$1,$8,$9,$2,$3,0*%
G04 Aperture macros list end*
%ADD10RoundRect,0.150000X0.150000X-0.875000X0.150000X0.875000X-0.150000X0.875000X-0.150000X-0.875000X0*%
%ADD11RoundRect,0.150000X-0.477297X-0.689429X0.689429X0.477297X0.477297X0.689429X-0.689429X-0.477297X0*%
%ADD12RoundRect,0.200000X0.200000X0.275000X-0.200000X0.275000X-0.200000X-0.275000X0.200000X-0.275000X0*%
%ADD13RoundRect,0.200000X-0.275000X0.200000X-0.275000X-0.200000X0.275000X-0.200000X0.275000X0.200000X0*%
%ADD14RoundRect,0.200000X-0.200000X-0.275000X0.200000X-0.275000X0.200000X0.275000X-0.200000X0.275000X0*%
%ADD15RoundRect,0.225000X0.335876X0.017678X0.017678X0.335876X-0.335876X-0.017678X-0.017678X-0.335876X0*%
%ADD16RoundRect,0.225000X0.250000X-0.225000X0.250000X0.225000X-0.250000X0.225000X-0.250000X-0.225000X0*%
%ADD17RoundRect,0.250000X-0.250000X-0.475000X0.250000X-0.475000X0.250000X0.475000X-0.250000X0.475000X0*%
%ADD18RoundRect,0.218750X-0.218750X-0.256250X0.218750X-0.256250X0.218750X0.256250X-0.218750X0.256250X0*%
%ADD19R,1.700000X1.700000*%
%ADD20O,1.700000X1.700000*%
%ADD21RoundRect,0.200000X0.275000X-0.200000X0.275000X0.200000X-0.275000X0.200000X-0.275000X-0.200000X0*%
%ADD22RoundRect,0.150000X0.150000X-0.512500X0.150000X0.512500X-0.150000X0.512500X-0.150000X-0.512500X0*%
%ADD23RoundRect,0.150000X-0.587500X-0.150000X0.587500X-0.150000X0.587500X0.150000X-0.587500X0.150000X0*%
%ADD24R,0.600000X0.450000*%
%ADD25RoundRect,0.250000X-0.475000X0.250000X-0.475000X-0.250000X0.475000X-0.250000X0.475000X0.250000X0*%
%ADD26C,0.650000*%
%ADD27R,0.600000X1.500000*%
%ADD28R,0.300000X1.500000*%
%ADD29C,2.000000*%
%ADD30C,1.800000*%
%ADD31RoundRect,0.225000X-0.250000X0.225000X-0.250000X-0.225000X0.250000X-0.225000X0.250000X0.225000X0*%
%ADD32RoundRect,0.250000X0.250000X0.475000X-0.250000X0.475000X-0.250000X-0.475000X0.250000X-0.475000X0*%
%ADD33RoundRect,0.225000X-0.225000X-0.250000X0.225000X-0.250000X0.225000X0.250000X-0.225000X0.250000X0*%
%ADD34RoundRect,0.437500X-0.437500X-3.062500X0.437500X-3.062500X0.437500X3.062500X-0.437500X3.062500X0*%
%ADD35RoundRect,0.250000X-0.250000X-3.250000X0.250000X-3.250000X0.250000X3.250000X-0.250000X3.250000X0*%
%ADD36R,0.450000X1.750000*%
%ADD37RoundRect,0.150000X-0.512500X-0.150000X0.512500X-0.150000X0.512500X0.150000X-0.512500X0.150000X0*%
%ADD38RoundRect,0.150000X0.512500X0.150000X-0.512500X0.150000X-0.512500X-0.150000X0.512500X-0.150000X0*%
G04 APERTURE END LIST*
D10*
%TO.C,U1*%
X2245000Y12350000D03*
X3515000Y12350000D03*
X4785000Y12350000D03*
X6055000Y12350000D03*
X7325000Y12350000D03*
X8595000Y12350000D03*
X9865000Y12350000D03*
X11135000Y12350000D03*
X12405000Y12350000D03*
X13675000Y12350000D03*
X14945000Y12350000D03*
X16215000Y12350000D03*
X17485000Y12350000D03*
X18755000Y12350000D03*
X18755000Y21650000D03*
X17485000Y21650000D03*
X16215000Y21650000D03*
X14945000Y21650000D03*
X13675000Y21650000D03*
X12405000Y21650000D03*
X11135000Y21650000D03*
X9865000Y21650000D03*
X8595000Y21650000D03*
X7325000Y21650000D03*
X6055000Y21650000D03*
X4785000Y21650000D03*
X3515000Y21650000D03*
X2245000Y21650000D03*
%TD*%
D11*
%TO.C,U8*%
X37906821Y32693000D03*
X38804847Y31794975D03*
X39702872Y30896949D03*
X40600898Y29998924D03*
X41498924Y29100898D03*
X42396949Y28202872D03*
X43294975Y27304847D03*
X44193000Y26406821D03*
X47693179Y29907000D03*
X46795153Y30805025D03*
X45897128Y31703051D03*
X44999102Y32601076D03*
X44101076Y33499102D03*
X43203051Y34397128D03*
X42305025Y35295153D03*
X41407000Y36193179D03*
%TD*%
D12*
%TO.C,R28*%
X42825000Y54300000D03*
X41175000Y54300000D03*
%TD*%
D13*
%TO.C,R11*%
X36900000Y43525000D03*
X36900000Y41875000D03*
%TD*%
%TO.C,R17*%
X29400000Y43525000D03*
X29400000Y41875000D03*
%TD*%
D12*
%TO.C,R26*%
X42825000Y57300000D03*
X41175000Y57300000D03*
%TD*%
D14*
%TO.C,R3*%
X16175000Y58400000D03*
X17825000Y58400000D03*
%TD*%
D13*
%TO.C,R14*%
X33900000Y43525000D03*
X33900000Y41875000D03*
%TD*%
D15*
%TO.C,C6*%
X35000000Y29900000D03*
X33903984Y30996016D03*
%TD*%
D13*
%TO.C,R15*%
X48400000Y38850000D03*
X48400000Y37200000D03*
%TD*%
%TO.C,R1*%
X1000000Y42325000D03*
X1000000Y40675000D03*
%TD*%
D16*
%TO.C,C4*%
X700000Y34225000D03*
X700000Y35775000D03*
%TD*%
D17*
%TO.C,C2*%
X9050000Y50500000D03*
X10950000Y50500000D03*
%TD*%
D18*
%TO.C,D3*%
X19212500Y60000000D03*
X20787500Y60000000D03*
%TD*%
D12*
%TO.C,R23*%
X47525000Y43715751D03*
X45875000Y43715751D03*
%TD*%
D14*
%TO.C,R9*%
X38800000Y52300000D03*
X40450000Y52300000D03*
%TD*%
%TO.C,R4*%
X19175000Y58400000D03*
X20825000Y58400000D03*
%TD*%
D11*
%TO.C,U6*%
X37509872Y17490128D03*
X38407898Y16592103D03*
X39305923Y15694077D03*
X40203949Y14796052D03*
X41101975Y13898026D03*
X42000000Y13000000D03*
X42898026Y12101975D03*
X43796051Y11203949D03*
X47296230Y14704128D03*
X46398204Y15602153D03*
X45500179Y16500179D03*
X44602153Y17398204D03*
X43704127Y18296230D03*
X42806102Y19194256D03*
X41908076Y20092281D03*
X41010051Y20990307D03*
%TD*%
D13*
%TO.C,R19*%
X30900000Y43525000D03*
X30900000Y41875000D03*
%TD*%
%TO.C,R10*%
X32400000Y43525000D03*
X32400000Y41875000D03*
%TD*%
D19*
%TO.C,J1*%
X26425000Y59000000D03*
D20*
X28965000Y59000000D03*
X31505000Y59000000D03*
X34045000Y59000000D03*
X36585000Y59000000D03*
%TD*%
D18*
%TO.C,D2*%
X16212500Y60000000D03*
X17787500Y60000000D03*
%TD*%
D21*
%TO.C,R25*%
X15500000Y54375000D03*
X15500000Y56025000D03*
%TD*%
D22*
%TO.C,U3*%
X21050000Y22862500D03*
X22000000Y22862500D03*
X22950000Y22862500D03*
X22950000Y25137500D03*
X21050000Y25137500D03*
%TD*%
D12*
%TO.C,R22*%
X40525000Y43215751D03*
X38875000Y43215751D03*
%TD*%
D18*
%TO.C,D1*%
X13212500Y60000000D03*
X14787500Y60000000D03*
%TD*%
D14*
%TO.C,R21*%
X38875000Y44715751D03*
X40525000Y44715751D03*
%TD*%
D23*
%TO.C,Q3*%
X42262500Y44665751D03*
X42262500Y42765751D03*
X44137500Y43715751D03*
%TD*%
D24*
%TO.C,D7*%
X29650000Y50000000D03*
X31750000Y50000000D03*
%TD*%
D25*
%TO.C,C9*%
X34200000Y47950000D03*
X34200000Y46050000D03*
%TD*%
D14*
%TO.C,R16*%
X38875000Y48215751D03*
X40525000Y48215751D03*
%TD*%
D26*
%TO.C,J3*%
X3610000Y55750000D03*
X9390000Y55750000D03*
D27*
X3300000Y54500000D03*
X9700000Y54500000D03*
X4100000Y54500000D03*
X8900000Y54500000D03*
D28*
X7750000Y54500000D03*
X6750000Y54500000D03*
X6250000Y54500000D03*
X5250000Y54500000D03*
X4750000Y54500000D03*
X5750000Y54500000D03*
X7250000Y54500000D03*
X8250000Y54500000D03*
D29*
X11200000Y55250000D03*
X1800000Y55250000D03*
D30*
X2180000Y59400000D03*
X10820000Y59400000D03*
%TD*%
D31*
%TO.C,C1*%
X1000000Y39275000D03*
X1000000Y37725000D03*
%TD*%
D14*
%TO.C,R5*%
X22175000Y58400000D03*
X23825000Y58400000D03*
%TD*%
D23*
%TO.C,Q1*%
X42250000Y52265751D03*
X42250000Y50365751D03*
X44125000Y51315751D03*
%TD*%
D15*
%TO.C,C5*%
X27548008Y37351992D03*
X26451992Y38448008D03*
%TD*%
D10*
%TO.C,U2*%
X2245000Y24850000D03*
X3515000Y24850000D03*
X4785000Y24850000D03*
X6055000Y24850000D03*
X7325000Y24850000D03*
X8595000Y24850000D03*
X9865000Y24850000D03*
X11135000Y24850000D03*
X12405000Y24850000D03*
X13675000Y24850000D03*
X14945000Y24850000D03*
X16215000Y24850000D03*
X17485000Y24850000D03*
X18755000Y24850000D03*
X18755000Y34150000D03*
X17485000Y34150000D03*
X16215000Y34150000D03*
X14945000Y34150000D03*
X13675000Y34150000D03*
X12405000Y34150000D03*
X11135000Y34150000D03*
X9865000Y34150000D03*
X8595000Y34150000D03*
X7325000Y34150000D03*
X6055000Y34150000D03*
X4785000Y34150000D03*
X3515000Y34150000D03*
X2245000Y34150000D03*
%TD*%
D13*
%TO.C,R6*%
X25000000Y24725000D03*
X25000000Y23075000D03*
%TD*%
D21*
%TO.C,R24*%
X14000000Y54375000D03*
X14000000Y56025000D03*
%TD*%
D32*
%TO.C,C8*%
X27150000Y46000000D03*
X25250000Y46000000D03*
%TD*%
D33*
%TO.C,C10*%
X2225000Y50000000D03*
X3775000Y50000000D03*
%TD*%
D23*
%TO.C,Q2*%
X42262500Y48165751D03*
X42262500Y46265751D03*
X44137500Y47215751D03*
%TD*%
D11*
%TO.C,U5*%
X30106821Y24893000D03*
X31004847Y23994975D03*
X31902872Y23096949D03*
X32800898Y22198924D03*
X33698924Y21300898D03*
X34596949Y20402872D03*
X35494975Y19504847D03*
X36393000Y18606821D03*
X39893179Y22107000D03*
X38995153Y23005025D03*
X38097128Y23903051D03*
X37199102Y24801076D03*
X36301076Y25699102D03*
X35403051Y26597128D03*
X34505025Y27495153D03*
X33607000Y28393179D03*
%TD*%
D19*
%TO.C,J2*%
X28965000Y56460000D03*
D20*
X31505000Y56460000D03*
X34045000Y56460000D03*
X36585000Y56460000D03*
%TD*%
D12*
%TO.C,R27*%
X42825000Y55800000D03*
X41175000Y55800000D03*
%TD*%
D32*
%TO.C,C11*%
X14450000Y50500000D03*
X12550000Y50500000D03*
%TD*%
D34*
%TO.C,J4*%
X1375000Y4000000D03*
D35*
X3250000Y4500000D03*
X4750000Y4500000D03*
X6250000Y4500000D03*
X7750000Y4500000D03*
X9250000Y4500000D03*
X10750000Y4500000D03*
X12250000Y4500000D03*
X13750000Y4500000D03*
X15250000Y4500000D03*
X16750000Y4500000D03*
X18250000Y4500000D03*
X19750000Y4500000D03*
X21250000Y4500000D03*
X22750000Y4500000D03*
X24250000Y4500000D03*
X25750000Y4500000D03*
X27250000Y4500000D03*
X28750000Y4500000D03*
X30250000Y4500000D03*
X31750000Y4500000D03*
X33250000Y4500000D03*
X34750000Y4500000D03*
X36250000Y4500000D03*
X37750000Y4500000D03*
X39250000Y4500000D03*
X40750000Y4500000D03*
X42250000Y4500000D03*
X43750000Y4500000D03*
X45250000Y4500000D03*
X46750000Y4500000D03*
D34*
X48625000Y4000000D03*
%TD*%
D15*
%TO.C,C7*%
X42300000Y22400000D03*
X41203984Y23496016D03*
%TD*%
D24*
%TO.C,D6*%
X27250000Y48000000D03*
X25150000Y48000000D03*
%TD*%
D12*
%TO.C,R20*%
X47525000Y47215751D03*
X45875000Y47215751D03*
%TD*%
D14*
%TO.C,R7*%
X38800000Y50800000D03*
X40450000Y50800000D03*
%TD*%
D16*
%TO.C,C3*%
X700000Y21625000D03*
X700000Y23175000D03*
%TD*%
D24*
%TO.C,D5*%
X27250000Y50000000D03*
X25150000Y50000000D03*
%TD*%
D36*
%TO.C,U7*%
X3275000Y40400000D03*
X3925000Y40400000D03*
X4575000Y40400000D03*
X5225000Y40400000D03*
X5875000Y40400000D03*
X6525000Y40400000D03*
X7175000Y40400000D03*
X7825000Y40400000D03*
X8475000Y40400000D03*
X9125000Y40400000D03*
X9775000Y40400000D03*
X10425000Y40400000D03*
X11075000Y40400000D03*
X11725000Y40400000D03*
X11725000Y47600000D03*
X11075000Y47600000D03*
X10425000Y47600000D03*
X9775000Y47600000D03*
X9125000Y47600000D03*
X8475000Y47600000D03*
X7825000Y47600000D03*
X7175000Y47600000D03*
X6525000Y47600000D03*
X5875000Y47600000D03*
X5225000Y47600000D03*
X4575000Y47600000D03*
X3925000Y47600000D03*
X3275000Y47600000D03*
%TD*%
D21*
%TO.C,R13*%
X48400000Y34250000D03*
X48400000Y35900000D03*
%TD*%
D13*
%TO.C,R12*%
X35400000Y43525000D03*
X35400000Y41875000D03*
%TD*%
D37*
%TO.C,U9*%
X29562500Y47950000D03*
X29562500Y47000000D03*
X29562500Y46050000D03*
X31837500Y46050000D03*
X31837500Y47950000D03*
%TD*%
D14*
%TO.C,R2*%
X13175000Y58400000D03*
X14825000Y58400000D03*
%TD*%
D13*
%TO.C,R8*%
X26500000Y24725000D03*
X26500000Y23075000D03*
%TD*%
D38*
%TO.C,U10*%
X23037500Y26850000D03*
X23037500Y27800000D03*
X23037500Y28750000D03*
X20762500Y28750000D03*
X20762500Y26850000D03*
%TD*%
D18*
%TO.C,D4*%
X22212500Y60000000D03*
X23787500Y60000000D03*
%TD*%
D11*
%TO.C,U4*%
X22606821Y32393000D03*
X23504847Y31494975D03*
X24402872Y30596949D03*
X25300898Y29698924D03*
X26198924Y28800898D03*
X27096949Y27902872D03*
X27994975Y27004847D03*
X28893000Y26106821D03*
X32393179Y29607000D03*
X31495153Y30505025D03*
X30597128Y31403051D03*
X29699102Y32301076D03*
X28801076Y33199102D03*
X27903051Y34097128D03*
X27005025Y34995153D03*
X26107000Y35893179D03*
%TD*%
D12*
%TO.C,R18*%
X40525000Y46715751D03*
X38875000Y46715751D03*
%TD*%
M02*
